<svg width="13" height="19" viewBox="0 0 13 19" fill="none" xmlns="http://www.w3.org/2000/svg">
<path d="M10.5589 8.8611C11.4757 8.39385 12.0487 7.5706 11.9142 6.2001C11.7334 4.3266 10.1159 3.69935 8.07419 3.52135L8.07319 1.25685C8.07369 1.2496 8.07744 1.24335 8.07744 1.23585C8.07744 1.0631 7.93744 0.923351 7.76469 0.923101H6.81144C6.7286 0.923168 6.64918 0.956121 6.59063 1.01472C6.53208 1.07332 6.49919 1.15276 6.49919 1.2356H6.49194L6.49319 3.4536C6.07719 3.4536 5.65219 3.46185 5.23019 3.4706L5.22944 1.2631C5.23019 1.2536 5.23494 1.24535 5.23494 1.2356C5.23494 1.06285 5.09494 0.923102 4.92219 0.922852H3.96894C3.8861 0.922918 3.80668 0.955871 3.74813 1.01447C3.68958 1.07307 3.65669 1.15251 3.65669 1.23535L3.65694 1.2361H3.64919L3.64969 3.52185C3.30719 3.52885 2.97094 3.5361 2.64294 3.5361L2.64269 3.52785H0.461188V3.5311C0.420108 3.53107 0.379424 3.53914 0.341465 3.55484C0.303505 3.57055 0.269015 3.59358 0.239967 3.62263C0.210919 3.65168 0.187883 3.68617 0.172177 3.72413C0.156472 3.76209 0.148405 3.80277 0.148438 3.84385V4.90035C0.148438 5.0731 0.288438 5.2131 0.461188 5.2131L0.462438 5.21285V5.2176C0.462438 5.2176 1.63044 5.19485 1.61094 5.2156C2.25144 5.21585 2.46019 5.5876 2.52094 5.90835L2.52219 8.8691L2.52244 8.88035L2.52369 13.0271C2.49569 13.2286 2.37719 13.5504 1.92969 13.5511C1.94994 13.5689 0.779938 13.5509 0.779938 13.5509L0.779688 13.5524C0.777688 13.5524 0.776188 13.5511 0.774188 13.5511C0.623938 13.5511 0.504438 13.6591 0.474188 13.8004L0.461438 13.7996L0.173438 15.0919L0.180188 15.0931C0.178938 15.1046 0.173438 15.1146 0.173438 15.1266C0.173438 15.2926 0.303938 15.4254 0.467438 15.4356L0.466688 15.4404L2.52494 15.4396C2.90794 15.4396 3.28494 15.4459 3.65494 15.4481L3.65669 17.7636H3.65744C3.65744 17.9361 3.79744 18.0761 3.97019 18.0761H4.92344C5.0063 18.076 5.08572 18.043 5.14426 17.9843C5.20281 17.9257 5.23569 17.8462 5.23569 17.7634H5.23619L5.23519 15.4761C5.66894 15.4849 6.08869 15.4881 6.49869 15.4871L6.49919 17.7636H6.49994C6.50019 17.9361 6.63994 18.0761 6.81244 18.0761H7.76569C7.84855 18.076 7.92797 18.043 7.98651 17.9843C8.04506 17.9257 8.07794 17.8462 8.07794 17.7634V17.7631H8.07994L8.07944 15.4514C10.7382 15.2976 12.5992 14.6271 12.8292 12.1299C13.0147 10.1196 12.0684 9.2226 10.5589 8.8611ZM5.26769 5.32985C6.16044 5.32935 8.96494 5.04435 8.96594 6.90785C8.96619 8.69485 6.16144 8.48735 5.26869 8.48785L5.26769 5.32985ZM5.27044 13.5636L5.26969 10.0814C6.34169 10.0814 9.70294 9.77185 9.70369 11.8201C9.70519 13.7841 6.34244 13.5619 5.27044 13.5636Z" fill="#1CD8D2"/>
</svg>
