<svg width="447" height="333" viewBox="0 0 447 333" fill="none" xmlns="http://www.w3.org/2000/svg">
<path d="M447 292.638H0V292.861H447V292.638Z" fill="#F0F0F0"/>
<path d="M317.37 303.9H307.999V304.124H317.37V303.9Z" fill="#F0F0F0"/>
<path d="M67.1054 298.036H58.0492V298.259H67.1054V298.036Z" fill="#F0F0F0"/>
<path d="M164.595 303.789H137.182V304.012H164.595V303.789Z" fill="#F0F0F0"/>
<path d="M209.196 298.694H191.599V298.917H209.196V298.694Z" fill="#F0F0F0"/>
<path d="M384.08 300.108H337.195V300.332H384.08V300.108Z" fill="#F0F0F0"/>
<path d="M109.922 298.036H71.4207V298.259H109.922V298.036Z" fill="#F0F0F0"/>
<path d="M404.016 300.22H389.293V300.443H404.016V300.22Z" fill="#F0F0F0"/>
<path d="M211.891 252.781H39.26C37.9071 252.779 36.6101 252.241 35.6535 251.285C34.6969 250.329 34.1587 249.032 34.1571 247.68V5.10123C34.1587 3.74881 34.6969 2.45225 35.6535 1.49594C36.6101 0.539638 37.9071 0.0016555 39.26 0H211.891C213.244 0.00189193 214.541 0.539977 215.497 1.49626C216.454 2.45254 216.992 3.74896 216.993 5.10123V247.68C216.992 249.032 216.454 250.329 215.497 251.285C214.54 252.241 213.243 252.779 211.891 252.781ZM39.26 0.221638C37.9663 0.223057 36.7261 0.737423 35.8113 1.65188C34.8965 2.56634 34.382 3.8062 34.3806 5.09944V247.68C34.382 248.974 34.8965 250.214 35.8113 251.128C36.7261 252.042 37.9663 252.557 39.26 252.558H211.891C213.185 252.557 214.425 252.042 215.34 251.128C216.254 250.213 216.769 248.974 216.77 247.68V5.10123C216.769 3.80815 216.254 2.56842 215.34 1.65398C214.425 0.739552 213.185 0.22508 211.891 0.223425H39.26V0.221638Z" fill="#F0F0F0"/>
<path d="M405.259 252.781H232.628C231.275 252.779 229.978 252.241 229.022 251.284C228.065 250.328 227.527 249.032 227.526 247.68V5.10123C227.527 3.74896 228.065 2.45254 229.022 1.49626C229.978 0.539977 231.275 0.00189193 232.628 0H405.259C406.612 0.00141945 407.909 0.539324 408.866 1.49568C409.823 2.45204 410.361 3.74874 410.362 5.10123V247.68C410.361 249.032 409.823 250.329 408.866 251.285C407.909 252.241 406.612 252.779 405.259 252.781V252.781ZM232.63 0.221638C231.336 0.223058 230.096 0.737452 229.181 1.65194C228.266 2.56642 227.752 3.80629 227.751 5.09944V247.68C227.752 248.974 228.266 250.213 229.181 251.128C230.096 252.042 231.336 252.557 232.63 252.558H405.261C406.555 252.557 407.795 252.042 408.71 251.128C409.624 250.214 410.139 248.974 410.14 247.68V5.10123C410.139 3.80737 409.625 2.56678 408.71 1.65188C407.794 0.736985 406.553 0.222585 405.259 0.221638H232.628H232.63Z" fill="#F0F0F0"/>
<path d="M389.662 238.99H365.075V292.638H389.662V238.99Z" fill="#E6E6E6"/>
<path d="M384.992 292.64H389.662V279.358H380.097L384.992 292.64Z" fill="#F5F5F5"/>
<path d="M249.372 238.99H224.784V292.638H249.372V238.99Z" fill="#EBEBEB"/>
<path d="M389.662 238.99H245.297V284.489H389.662V238.99Z" fill="#F5F5F5"/>
<path d="M292.891 243.338H250.096V267.889H292.891V243.338Z" fill="#E6E6E6"/>
<path d="M275.727 247.053H267.261C265.442 247.053 263.641 246.683 261.969 245.964C260.298 245.245 258.79 244.193 257.539 242.872H285.454C284.202 244.193 282.694 245.245 281.022 245.964C279.349 246.683 277.548 247.053 275.727 247.053V247.053Z" fill="#F0F0F0"/>
<path d="M338.877 243.338H296.082V267.889H338.877V243.338Z" fill="#E6E6E6"/>
<path d="M322.145 247.053H313.679C311.86 247.053 310.06 246.682 308.389 245.963C306.718 245.244 305.211 244.193 303.96 242.872H331.872C330.62 244.193 329.111 245.245 327.439 245.964C325.767 246.683 323.965 247.054 322.145 247.053V247.053Z" fill="#F0F0F0"/>
<path d="M384.863 243.338H342.068V267.889H384.863V243.338Z" fill="#E6E6E6"/>
<path d="M368.13 247.053H359.664C357.845 247.053 356.044 246.683 354.372 245.964C352.701 245.245 351.193 244.193 349.942 242.872H377.854C376.602 244.193 375.094 245.245 373.423 245.963C371.751 246.682 369.95 247.053 368.13 247.053V247.053Z" fill="#F0F0F0"/>
<path d="M249.962 292.64H245.293V279.358H254.859L249.962 292.64Z" fill="#F5F5F5"/>
<path d="M275.711 17.0143H56.2022V135.392H275.711V17.0143Z" fill="#E6E6E6"/>
<path d="M280.252 17.0143H58.3236V135.392H280.252V17.0143Z" fill="#EBEBEB"/>
<path d="M275.711 135.393H56.2022V143.827H275.711V135.393Z" fill="#E6E6E6"/>
<path d="M287.817 135.393H65.8887V143.827H287.817V135.393Z" fill="#E6E6E6"/>
<path d="M273.896 23.3694H64.6809V129.038H273.896V23.3694Z" fill="#FAFAFA"/>
<path d="M76.842 129.038L114.153 23.3685H131.765L94.4547 129.038H76.842Z" fill="white"/>
<path d="M67.6239 93.219C67.495 93.2188 67.3715 93.1675 67.2803 93.0763C67.1891 92.9852 67.1378 92.8617 67.1376 92.7328V27.5045C67.1376 27.3755 67.1888 27.2519 67.28 27.1607C67.3712 27.0695 67.4949 27.0183 67.6239 27.0183C67.7529 27.0183 67.8766 27.0695 67.9678 27.1607C68.059 27.2519 68.1103 27.3755 68.1103 27.5045V92.7337C68.11 92.8625 68.0587 92.9859 67.9675 93.0769C67.8763 93.1679 67.7528 93.219 67.6239 93.219V93.219Z" fill="#E6E6E6"/>
<path d="M98.239 129.038L135.55 23.3685H142.416L105.105 129.038H98.239Z" fill="white"/>
<path d="M273.895 23.3694H273.087V129.038H273.895V23.3694Z" fill="#E6E6E6"/>
<path d="M281.756 31.5011H62.2456L61.6609 25.8413H281.17L281.756 31.5011Z" fill="#EBEBEB"/>
<path d="M281.756 35.6425H62.2456L61.6609 29.9818H281.17L281.756 35.6425Z" fill="#EBEBEB"/>
<path d="M281.756 40.6168H62.2456L61.6609 34.957H281.17L281.756 40.6168Z" fill="#EBEBEB"/>
<path d="M281.756 46.1461H62.2456L61.6609 40.4863H281.17L281.756 46.1461Z" fill="#EBEBEB"/>
<path d="M281.756 52.7711H62.2456L61.6609 47.1113H281.17L281.756 52.7711Z" fill="#E6E6E6"/>
<path d="M281.756 60.2317H62.2456L61.6609 54.5719H281.17L281.756 60.2317Z" fill="#E6E6E6"/>
<path d="M336.58 67.072H305.963V102.334H336.58V67.072Z" fill="#EBEBEB"/>
<path d="M342.774 67.072H309.593V102.334H342.774V67.072Z" fill="#F5F5F5"/>
<path d="M339.995 69.8506H312.373V99.5544H339.995V69.8506Z" fill="white"/>
<path d="M319.069 89.9194V79.4864C319.069 78.8405 319.325 78.221 319.782 77.7643C320.239 77.3076 320.859 77.051 321.505 77.051H330.863C331.509 77.051 332.129 77.3076 332.586 77.7643C333.043 78.221 333.299 78.8405 333.299 79.4864V89.9194C333.299 90.5653 333.043 91.1847 332.586 91.6414C332.129 92.0981 331.509 92.3547 330.863 92.3547H321.504C320.858 92.3545 320.238 92.0978 319.782 91.6411C319.325 91.1844 319.069 90.5651 319.069 89.9194Z" fill="#FAFAFA"/>
<path d="M382.791 51.5619H352.173V86.8237H382.791V51.5619Z" fill="#EBEBEB"/>
<path d="M388.986 51.5619H355.805V86.8237H388.986V51.5619Z" fill="#F5F5F5"/>
<path d="M386.205 54.3413H358.584V84.0452H386.205V54.3413Z" fill="white"/>
<path d="M365.279 74.4102V63.9772C365.279 63.3313 365.536 62.7119 365.993 62.2552C366.45 61.7984 367.069 61.5419 367.716 61.5419H377.074C377.72 61.5419 378.34 61.7984 378.797 62.2552C379.253 62.7119 379.51 63.3313 379.51 63.9772V74.4102C379.51 75.0561 379.253 75.6756 378.797 76.1323C378.34 76.589 377.72 76.8456 377.074 76.8456H367.716C367.069 76.8456 366.45 76.589 365.993 76.1323C365.536 75.6756 365.279 75.0561 365.279 74.4102V74.4102Z" fill="#FAFAFA"/>
<path d="M232.738 188.317H183.066V292.638H232.738V188.317Z" fill="#E6E6E6"/>
<path d="M227.742 292.64H232.738V278.43H222.503L227.742 292.64Z" fill="#E6E6E6"/>
<path d="M110.55 188.317H60.8787V292.638H110.55V188.317Z" fill="#E6E6E6"/>
<path d="M232.738 188.317H106.19V283.921H232.738V188.317Z" fill="#F5F5F5"/>
<path d="M227.813 192.554H109.017V218.772H227.813V192.554Z" fill="#E6E6E6"/>
<path d="M175.076 200.701H163.853C158.978 200.701 154.318 197.467 150.965 191.756H187.963C184.611 197.466 179.951 200.701 175.076 200.701Z" fill="#F5F5F5"/>
<path d="M111.187 292.64H106.19V278.43H116.425L111.187 292.64Z" fill="#E6E6E6"/>
<path d="M227.813 223.009H109.017V249.227H227.813V223.009Z" fill="#E6E6E6"/>
<path d="M175.076 231.153H163.853C158.978 231.153 154.318 227.919 150.965 222.208H187.963C184.611 227.922 179.951 231.153 175.076 231.153Z" fill="#F5F5F5"/>
<path d="M227.813 253.464H109.017V279.683H227.813V253.464Z" fill="#E6E6E6"/>
<path d="M175.076 261.612H163.853C158.978 261.612 154.318 258.378 150.965 252.667H187.963C184.611 258.378 179.951 261.612 175.076 261.612Z" fill="#F5F5F5"/>
<path d="M341.985 229.366H343.467C343.452 226.313 343.474 218.568 343.622 200.819C343.89 168.646 344.4 166.687 344.4 166.687L340.87 181.539C338.633 197.986 341.519 214.513 341.985 229.366Z" fill="#E6E6E6"/>
<path d="M335.408 176.042C327.638 168.366 312.474 167.337 296.986 166.693C290.907 166.441 313.972 178.12 325.53 186.867C334.509 193.659 339.993 195.258 342.969 202.588C343.272 193.074 342.103 182.656 335.408 176.042Z" fill="#E6E6E6"/>
<path d="M343.95 159.342C349.213 149.343 362.462 139.928 377.328 136.357C383.164 134.955 363.808 154.822 356.451 167.632C350.736 177.583 343.157 189.275 341.979 197.672C340.2 181.036 338.686 169.341 343.95 159.342Z" fill="#E6E6E6"/>
<path d="M343.272 238.99C340.779 238.989 338.381 238.035 336.57 236.323C334.758 234.612 333.669 232.273 333.527 229.785L332.657 220.965H353.878L353.016 229.789C352.873 232.276 351.785 234.614 349.973 236.325C348.161 238.036 345.764 238.989 343.272 238.99V238.99Z" fill="#F0F0F0"/>
<path d="M355.257 224.361H331.288L330.601 214.53H355.942L355.257 224.361Z" fill="#F5F5F5"/>
<path d="M295.102 121.745C294.257 120.607 293.204 119.639 291.999 118.892C293.15 118.66 294.254 118.238 295.265 117.643C296.3 116.793 297.122 115.713 297.664 114.489C298.014 113.664 299.391 110.13 297.361 107.126C295.771 104.794 293.535 103.326 290.319 101.984L292.801 94.7664L288.388 93.2495L285.935 100.382L282.553 99.2199L285.007 92.087L280.594 90.57L278.14 97.7029L269.466 94.7212L267.876 99.3441L270.412 100.216C271.105 100.454 272.322 100.957 272.643 101.729C272.963 102.501 272.949 102.846 272.551 104.003C272.152 105.161 266.364 121.988 266.213 122.427C266.147 122.675 266.032 122.907 265.875 123.109C265.717 123.312 265.521 123.481 265.297 123.606C264.803 123.833 264.402 123.789 263.514 123.484L260.877 122.578L258.132 127.616L266.823 130.604L264.375 137.72L268.788 139.237L271.239 132.112L274.62 133.275L272.173 140.391L276.586 141.908L279.074 134.673C280.239 134.998 281.333 135.28 281.979 135.407C284.471 136.021 287.076 136.004 289.559 135.357C292.868 134.397 294.477 131.67 295.551 128.741C296.624 125.812 296.212 123.412 295.102 121.745ZM280.837 104.263C280.837 104.263 282.284 104.618 283.662 105.12C285.167 105.605 286.585 106.328 287.86 107.263C288.602 107.736 289.169 108.437 289.478 109.26C289.786 110.084 289.818 110.986 289.57 111.829C289.386 112.536 288.997 113.172 288.451 113.657C287.905 114.142 287.228 114.455 286.505 114.556C284.845 114.776 283.156 114.625 281.561 114.113C279.935 113.62 277.892 112.852 277.892 112.852L280.837 104.263ZM283.4 128.94C281.58 129.108 279.745 128.935 277.988 128.431C275.977 127.901 273.073 126.836 273.073 126.836L276.36 117.278C276.36 117.278 279.217 118.099 281.357 118.995C283 119.652 284.513 120.598 285.823 121.787C286.385 122.341 286.778 123.042 286.959 123.81C287.139 124.577 287.099 125.38 286.842 126.126C286.586 126.871 286.123 127.529 285.509 128.024C284.895 128.518 284.153 128.829 283.369 128.92L283.4 128.94Z" fill="#54CBC7"/>
<path d="M299.196 133.502H175.228C172.386 133.51 169.662 134.642 167.652 136.652C165.642 138.661 164.509 141.384 164.5 144.226V306.79C164.509 309.631 165.642 312.354 167.652 314.364C169.662 316.373 172.386 317.506 175.228 317.514H299.197C302.039 317.506 304.763 316.373 306.774 314.364C308.784 312.354 309.917 309.631 309.925 306.79V144.226C309.916 141.384 308.783 138.661 306.773 136.652C304.762 134.643 302.039 133.51 299.196 133.502Z" fill="#263238"/>
<path d="M307.54 133.502H183.572C180.729 133.51 178.006 134.642 175.995 136.652C173.985 138.661 172.852 141.384 172.844 144.226V306.79C172.852 309.631 173.985 312.354 175.995 314.364C178.006 316.373 180.729 317.506 183.572 317.514H307.54C310.383 317.506 313.107 316.373 315.117 314.364C317.127 312.354 318.26 309.631 318.268 306.79V144.226C318.26 141.384 317.127 138.661 315.117 136.652C313.107 134.642 310.383 133.51 307.54 133.502Z" fill="#3F478C"/>
<path d="M198.257 320.791H186.184C186.007 320.791 185.837 320.72 185.712 320.595C185.587 320.47 185.516 320.301 185.516 320.124V318.183C185.516 318.006 185.587 317.836 185.712 317.711C185.837 317.586 186.007 317.515 186.184 317.515H198.257C198.434 317.515 198.604 317.586 198.729 317.711C198.854 317.836 198.924 318.006 198.925 318.183V320.124C198.924 320.3 198.854 320.47 198.728 320.595C198.603 320.72 198.434 320.79 198.257 320.791V320.791Z" fill="#263238"/>
<path d="M304.929 320.791H292.856C292.679 320.791 292.509 320.72 292.384 320.595C292.259 320.47 292.188 320.301 292.188 320.124V318.183C292.188 318.006 292.259 317.836 292.384 317.711C292.509 317.586 292.679 317.515 292.856 317.515H304.929C305.106 317.515 305.276 317.586 305.401 317.711C305.526 317.836 305.596 318.006 305.597 318.183V320.124C305.596 320.301 305.526 320.47 305.401 320.595C305.276 320.72 305.106 320.791 304.929 320.791V320.791Z" fill="#263238"/>
<path opacity="0.4" d="M292.938 296.293H198.174C197.088 296.292 196.046 295.86 195.278 295.092C194.51 294.324 194.078 293.283 194.077 292.197V158.824C194.078 157.738 194.51 156.696 195.278 155.928C196.046 155.16 197.088 154.728 198.174 154.727H292.938C294.024 154.728 295.066 155.16 295.834 155.928C296.603 156.696 297.035 157.738 297.036 158.824V292.198C297.035 293.284 296.602 294.325 295.834 295.093C295.066 295.861 294.024 296.292 292.938 296.293V296.293ZM198.174 155.174C197.206 155.175 196.278 155.56 195.594 156.244C194.909 156.928 194.525 157.856 194.524 158.824V292.198C194.525 293.166 194.91 294.093 195.594 294.777C196.278 295.461 197.206 295.846 198.174 295.847H292.938C293.906 295.846 294.834 295.462 295.518 294.777C296.203 294.093 296.588 293.166 296.589 292.198V158.824C296.588 157.856 296.203 156.928 295.518 156.244C294.834 155.56 293.906 155.175 292.938 155.174H198.174Z" fill="#E6E6E6"/>
<path d="M198.175 294.282C197.622 294.282 197.091 294.062 196.7 293.671C196.309 293.28 196.089 292.75 196.088 292.197V158.823C196.089 158.27 196.309 157.74 196.7 157.349C197.091 156.958 197.622 156.738 198.175 156.738H292.939C293.491 156.74 294.02 156.96 294.41 157.351C294.8 157.742 295.019 158.271 295.02 158.823V292.193C295.019 292.746 294.799 293.276 294.408 293.666C294.017 294.057 293.487 294.277 292.934 294.278L198.175 294.282Z" fill="#5C639E"/>
<path opacity="0.1" d="M245.556 258.591C262.392 258.591 276.04 244.947 276.04 228.117C276.04 211.286 262.392 197.642 245.556 197.642C228.72 197.642 215.071 211.286 215.071 228.117C215.071 244.947 228.72 258.591 245.556 258.591Z" fill="black"/>
<path d="M195.956 195.036H192.648C192.297 195.035 191.961 194.896 191.713 194.648C191.464 194.4 191.324 194.063 191.323 193.713V175.575C191.324 175.224 191.464 174.888 191.712 174.64C191.961 174.391 192.297 174.252 192.648 174.251H195.956C196.307 174.252 196.643 174.392 196.891 174.64C197.139 174.888 197.279 175.224 197.28 175.575V193.713C197.279 194.063 197.139 194.4 196.891 194.648C196.643 194.896 196.307 195.035 195.956 195.036Z" fill="#343638"/>
<path d="M195.956 276.769H192.648C192.297 276.768 191.961 276.629 191.712 276.38C191.464 276.132 191.324 275.796 191.323 275.445V257.303C191.324 256.952 191.464 256.616 191.712 256.367C191.961 256.119 192.297 255.979 192.648 255.978H195.956C196.307 255.98 196.643 256.12 196.891 256.368C197.139 256.616 197.279 256.952 197.28 257.303V275.445C197.279 275.796 197.139 276.132 196.891 276.38C196.643 276.629 196.307 276.768 195.956 276.769V276.769Z" fill="#343638"/>
<path d="M245.556 255.985C262.392 255.985 276.04 242.341 276.04 225.51C276.04 208.68 262.392 195.036 245.556 195.036C228.72 195.036 215.071 208.68 215.071 225.51C215.071 242.341 228.72 255.985 245.556 255.985Z" fill="#3F478C"/>
<path d="M261.909 240.59L230.468 209.159L229.204 210.423L260.644 241.853L261.909 240.59Z" fill="white"/>
<path d="M261.909 210.423L260.645 209.159L229.204 240.59L230.468 241.853L261.909 210.423Z" fill="white"/>
<path d="M245.462 248.547C240.884 248.547 236.41 247.19 232.603 244.648C228.797 242.106 225.831 238.492 224.079 234.265C222.327 230.037 221.869 225.385 222.762 220.897C223.655 216.408 225.859 212.286 229.096 209.05C232.333 205.814 236.457 203.611 240.947 202.718C245.436 201.825 250.09 202.283 254.319 204.035C258.548 205.786 262.163 208.751 264.706 212.556C267.249 216.361 268.607 220.834 268.607 225.41C268.6 231.545 266.159 237.426 261.82 241.763C257.481 246.101 251.598 248.54 245.462 248.547V248.547ZM245.462 204.061C241.238 204.061 237.109 205.313 233.597 207.659C230.085 210.005 227.348 213.339 225.731 217.24C224.115 221.141 223.692 225.434 224.516 229.575C225.34 233.717 227.374 237.521 230.36 240.507C233.347 243.492 237.152 245.526 241.295 246.35C245.438 247.173 249.732 246.751 253.634 245.135C257.537 243.519 260.872 240.783 263.219 237.272C265.566 233.761 266.819 229.634 266.819 225.411C266.813 219.751 264.561 214.324 260.557 210.321C256.553 206.319 251.124 204.067 245.462 204.061Z" fill="white"/>
<path d="M245.461 235.092C250.81 235.092 255.146 230.757 255.146 225.41C255.146 220.064 250.81 215.729 245.461 215.729C240.112 215.729 235.776 220.064 235.776 225.41C235.776 230.757 240.112 235.092 245.461 235.092Z" fill="white"/>
<path d="M240.371 223.675C240.578 223.818 240.742 224 240.86 224.204L243.587 224.333C243.956 223.858 244.541 223.565 245.186 223.595C245.205 223.596 245.224 223.597 245.243 223.599L247.164 221.228C246.962 220.732 247.005 220.146 247.33 219.671C247.842 218.921 248.862 218.73 249.609 219.246C250.355 219.761 250.544 220.786 250.032 221.537C249.678 222.056 249.08 222.307 248.498 222.242L246.697 224.463C246.911 224.791 247.027 225.187 247.008 225.608C246.987 226.041 246.826 226.434 246.57 226.744L247.776 229.09C248 229.13 248.22 229.217 248.42 229.355C249.166 229.87 249.356 230.896 248.843 231.646C248.331 232.397 247.311 232.587 246.564 232.072C245.818 231.557 245.629 230.531 246.141 229.781C246.161 229.751 246.183 229.722 246.205 229.694L245.048 227.441C245.034 227.441 245.02 227.44 245.006 227.439C244.147 227.399 243.446 226.794 243.242 225.999L240.846 225.885C240.829 225.913 240.812 225.939 240.794 225.966C240.282 226.716 239.262 226.906 238.515 226.391C237.769 225.876 237.58 224.851 238.092 224.1C238.604 223.35 239.625 223.16 240.371 223.675Z" fill="url(#paint0_linear)"/>
<path d="M170.769 96.3506C172.926 101.339 175.15 106.405 177.403 111.383C179.656 116.362 181.962 121.329 184.435 126.076C185.061 127.238 185.673 128.444 186.335 129.54L186.823 130.379L187.065 130.795C187.04 130.763 187.009 130.735 186.976 130.712C186.866 130.644 186.942 130.777 187.192 130.924C188.012 131.365 188.9 131.664 189.819 131.809C191.012 132.031 192.217 132.186 193.428 132.272C195.964 132.451 198.632 132.451 201.317 132.361L205.371 132.191L209.415 131.922L210.457 136.787C204.937 138.631 199.206 139.778 193.401 140.2C191.836 140.301 190.266 140.286 188.704 140.155C186.853 140.029 185.036 139.6 183.324 138.886C182.14 138.368 181.075 137.613 180.195 136.668C179.934 136.383 179.693 136.081 179.473 135.763L179.163 135.297L178.548 134.371C177.705 133.134 176.99 131.902 176.223 130.663C173.32 125.7 170.733 120.684 168.301 115.612C165.877 110.524 163.609 105.438 161.481 100.187L170.769 96.3506Z" fill="#F0CFA5"/>
<path d="M158.882 95.6615C156.854 101.589 168.776 119.046 168.776 119.046L180.208 112.72C178.266 107.275 175.972 101.961 173.342 96.8125C169.314 89.2662 161.107 89.1562 158.882 95.6615Z" fill="#5C639E"/>
<path d="M166.594 91.1278C166.594 91.1278 175.11 111.135 168.974 148.395H133.524C133.092 142.955 135.589 116.419 129.452 90.7864C133.354 90.0303 137.3 89.5299 141.267 89.2885C146.286 88.9974 151.318 88.9974 156.336 89.2885C159.798 89.6378 163.227 90.2527 166.594 91.1278Z" fill="#5C639E"/>
<path d="M120.972 307.142L126.227 311.842L136.225 301.433L130.97 296.732L120.972 307.142Z" fill="#F9E4C9"/>
<path d="M127.676 309.956L121.288 305.657C121.181 305.579 121.051 305.538 120.919 305.542C120.786 305.546 120.659 305.594 120.557 305.678L115.675 310.603C115.579 310.711 115.509 310.839 115.469 310.978C115.429 311.117 115.419 311.262 115.442 311.405C115.464 311.547 115.518 311.683 115.599 311.803C115.68 311.922 115.786 312.023 115.91 312.096C119.985 315.233 122.929 317.602 125.248 320.21C127.959 323.261 129.382 323.691 135.64 323.691C138.535 323.691 140.172 321.254 138.993 320.881C128.563 317.579 131.351 316.144 128.818 311.31C128.557 310.77 128.164 310.305 127.676 309.956V309.956Z" fill="#263238"/>
<path d="M136.221 301.435L131.068 306.801L125.812 302.099L130.964 296.732L136.221 301.435Z" fill="#F9E4C9"/>
<path d="M139.827 301.587H146.458L146.011 309.496H139.38L139.827 301.587Z" fill="#5E2B2B"/>
<path d="M168.974 148.397C168.974 148.397 175.955 196.708 178.339 223.007C180.251 244.099 134.612 307.043 134.612 307.043L125.783 298.738C125.783 298.738 159.119 242.336 156.553 218.852C154.068 196.102 145.642 148.397 145.642 148.397H168.975H168.974Z" fill="#2B9B98"/>
<path d="M138.968 316.926H145.596L146.456 301.583H139.829L138.968 316.926Z" fill="#F9E4C9"/>
<path d="M145.943 316.159H138.497C138.372 316.154 138.25 316.199 138.158 316.284C138.065 316.369 138.011 316.486 138.005 316.611L137.647 322.501C137.646 322.811 137.768 323.109 137.986 323.329C138.203 323.55 138.5 323.676 138.81 323.679C141.402 323.634 142.64 323.481 145.915 323.481C147.929 323.481 156.494 323.69 159.276 323.69C161.997 323.69 161.979 320.94 160.796 320.691C155.51 319.574 148.957 318.034 147.086 316.565C146.761 316.306 146.358 316.164 145.943 316.159V316.159Z" fill="#263238"/>
<path d="M207.967 132.236L214.063 129.823L215.547 136.059C215.547 136.059 208.595 138.134 207.529 136.131L207.967 132.236Z" fill="#F0CFA5"/>
<path d="M219.216 131.081L221.004 134.507L215.551 136.065L214.066 129.828L219.216 131.081Z" fill="#F0CFA5"/>
<path d="M157.782 89.4396C157.308 89.3859 156.817 89.3323 156.334 89.2876C151.317 89.0015 146.287 89.0015 141.27 89.2876L140.34 89.3412L140.421 89.5825C140.492 89.7702 142.155 94.194 151.694 94.194C155.851 94.194 158.023 93.5059 158.524 92.0134C158.631 91.5568 158.619 91.0804 158.489 90.6298C158.359 90.1792 158.115 89.7694 157.782 89.4396Z" fill="#E6E6E6"/>
<path d="M142.171 72.3262C143.289 77.1736 144.546 86.0543 141.266 89.2886C141.266 89.2886 142.681 93.304 151.691 93.304C161.598 93.304 156.34 89.2886 156.34 89.2886C150.887 87.9981 150.887 83.9871 151.7 80.2211L142.171 72.3262Z" fill="#F0CFA5"/>
<path d="M146.055 75.5479L151.692 80.2174C151.489 81.096 151.365 81.9908 151.32 82.8914C149.244 82.5929 146.328 80.3265 146.034 78.1646C145.881 77.2984 145.888 76.4116 146.055 75.5479Z" fill="#5E2B2B"/>
<path d="M156.307 57.9108C159.319 59.8555 159.752 69.2241 155.345 70.5629C150.938 71.9016 150.603 54.2269 156.307 57.9108Z" fill="#263238"/>
<path d="M140.052 67.249C142.072 73.5255 142.933 77.2906 147.007 79.8502C148.322 80.6956 149.843 81.1656 151.405 81.2093C152.968 81.2529 154.513 80.8686 155.873 80.0978C157.233 79.3271 158.356 78.1993 159.121 76.8364C159.886 75.4735 160.264 73.9275 160.214 72.3655C160.131 66.3473 156.842 57.094 149.917 55.9348C148.424 55.6439 146.88 55.7506 145.442 56.2444C144.003 56.7381 142.719 57.6014 141.72 58.7478C140.721 59.8941 140.04 61.283 139.748 62.7752C139.455 64.2674 139.56 65.8103 140.052 67.249Z" fill="#F0CFA5"/>
<path d="M132.832 61.3631C134.989 65.2766 140.431 74.1752 143.064 73.3503C145.697 72.5254 145.685 65.307 142.332 60.7778C142.332 60.7778 168.891 63.4705 169.428 48.3777C169.978 32.9382 157.18 47.879 145.929 52.1929C133.653 56.8982 127.743 52.1259 132.832 61.3631Z" fill="#263238"/>
<path d="M133.967 55.891C133.912 55.89 133.86 55.8691 133.819 55.832C133.779 55.795 133.754 55.7445 133.748 55.6901C133.743 55.6357 133.757 55.5811 133.789 55.5368C133.821 55.4924 133.869 55.4614 133.922 55.4495C134.323 55.3664 134.762 55.2824 135.239 55.193C138.799 54.6101 142.27 53.5783 145.57 52.1222C148.919 50.6137 152.439 48.0443 155.543 45.777C157.518 44.266 159.578 42.8692 161.712 41.5936C161.764 41.5648 161.825 41.5577 161.882 41.574C161.939 41.5903 161.987 41.6285 162.016 41.6803C162.045 41.7321 162.052 41.7932 162.036 41.8502C162.019 41.9071 161.981 41.9553 161.929 41.9841C159.809 43.2501 157.764 44.6367 155.803 46.1372C152.68 48.417 149.141 50.9998 145.749 52.528C142.417 53.9991 138.911 55.0415 135.317 55.63C134.844 55.7194 134.407 55.8016 134.008 55.8847C133.995 55.8886 133.981 55.8907 133.967 55.891V55.891Z" fill="#263238"/>
<path d="M138.947 74.8937C140.153 76.06 141.76 76.7196 143.437 76.7365C145.645 76.7365 146.09 74.648 144.925 72.9008C143.875 71.3279 141.461 69.4332 139.51 70.2751C137.587 71.1054 137.48 73.4486 138.947 74.8937Z" fill="#F0CFA5"/>
<path opacity="0.2" d="M156.548 218.847C155.27 207.131 152.409 188.774 149.951 173.742C151.238 171.222 154.848 166.122 154.848 166.122C158.084 177.302 165.119 219.446 155.082 276.366C144.622 293.221 134.61 307.037 134.61 307.037L133.242 285.303C142.906 267.125 158.327 235.103 156.548 218.847Z" fill="black"/>
<path d="M150.235 66.8978C150.367 67.4162 150.752 67.7754 151.093 67.7022C151.435 67.6289 151.604 67.1472 151.471 66.6297C151.339 66.1123 150.955 65.7521 150.613 65.8254C150.272 65.8987 150.103 66.3795 150.235 66.8978Z" fill="#263238"/>
<path d="M156.138 65.6064C156.27 66.1248 156.655 66.4841 156.996 66.4108C157.338 66.3375 157.507 65.8558 157.374 65.3383C157.242 64.8209 156.858 64.4607 156.516 64.534C156.175 64.6073 156.003 65.0881 156.138 65.6064Z" fill="#263238"/>
<path d="M154.327 66.2749C155.358 67.7256 156.577 69.0324 157.954 70.1607C157.656 70.4931 157.289 70.7559 156.878 70.9304C156.468 71.1049 156.023 71.1869 155.577 71.1706L154.327 66.2749Z" fill="#D2B166"/>
<path d="M153.321 73.058C152.234 73.0677 151.179 72.6893 150.346 71.991C150.331 71.9769 150.319 71.96 150.31 71.9413C150.302 71.9225 150.297 71.9023 150.296 71.8817C150.295 71.8611 150.299 71.8405 150.306 71.8213C150.313 71.802 150.325 71.7843 150.339 71.7693C150.367 71.7395 150.407 71.7221 150.448 71.7208C150.489 71.7195 150.53 71.7343 150.56 71.7622C151.084 72.1859 151.697 72.4844 152.354 72.6351C153.01 72.7858 153.692 72.7847 154.348 72.6318C154.369 72.6257 154.391 72.6239 154.412 72.6265C154.434 72.6292 154.454 72.6363 154.473 72.6473C154.491 72.6583 154.508 72.673 154.52 72.6905C154.533 72.708 154.542 72.7279 154.546 72.749C154.551 72.7701 154.551 72.792 154.547 72.8131C154.543 72.8343 154.534 72.8544 154.522 72.8722C154.51 72.89 154.494 72.905 154.476 72.9164C154.457 72.9277 154.437 72.9352 154.415 72.9383C154.056 73.0171 153.689 73.0572 153.321 73.058V73.058Z" fill="#263238"/>
<path d="M147.896 65.4081C147.853 65.4082 147.811 65.3994 147.771 65.3821C147.733 65.3657 147.699 65.342 147.67 65.3124C147.642 65.2827 147.619 65.2478 147.604 65.2094C147.589 65.1711 147.582 65.1301 147.582 65.0889C147.583 65.0477 147.592 65.0071 147.608 64.9693C147.796 64.512 148.093 64.1078 148.474 63.7924C148.855 63.477 149.307 63.26 149.792 63.1604C149.874 63.1486 149.958 63.1699 150.024 63.2198C150.091 63.2696 150.135 63.3439 150.147 63.4263C150.159 63.5087 150.137 63.5924 150.087 63.659C150.038 63.7256 149.963 63.7697 149.881 63.7815C149.502 63.8658 149.15 64.0408 148.854 64.2915C148.558 64.5421 148.328 64.8609 148.182 65.2204C148.158 65.2759 148.118 65.3231 148.067 65.3564C148.016 65.3896 147.957 65.4076 147.896 65.4081V65.4081Z" fill="#263238"/>
<path d="M158.13 63.0388C158.084 63.0389 158.038 63.0288 157.997 63.0093C157.955 62.9899 157.918 62.9615 157.888 62.9262C157.64 62.6097 157.322 62.3545 156.96 62.1806C156.597 62.0067 156.199 61.9187 155.796 61.9235C155.714 61.9293 155.632 61.9026 155.569 61.8492C155.506 61.7958 155.466 61.7199 155.458 61.6375C155.45 61.5551 155.476 61.4731 155.529 61.4096C155.582 61.3462 155.659 61.3063 155.741 61.2988C156.244 61.2851 156.744 61.3887 157.2 61.6013C157.657 61.814 158.057 62.1299 158.37 62.5241C158.409 62.5697 158.434 62.6255 158.442 62.6847C158.449 62.744 158.44 62.8042 158.415 62.8584C158.39 62.9126 158.349 62.9584 158.299 62.9903C158.248 63.0223 158.19 63.0391 158.13 63.0388V63.0388Z" fill="#263238"/>
<path d="M134.048 126.664C132.267 126.066 130.558 125.272 128.952 124.296C128.603 124.074 128.279 123.813 127.988 123.518C128.397 121.595 128.93 119.661 129.508 117.722C130.138 115.756 130.807 113.797 131.547 111.843C132.287 109.888 133.078 107.944 133.904 106.01C134.312 105.042 134.731 104.077 135.165 103.123L136.448 100.341L127.508 95.7651C126.922 96.8849 126.435 97.868 125.96 98.9306C125.482 99.9744 125.024 101.023 124.576 102.077C123.697 104.191 122.887 106.338 122.162 108.524C120.647 112.963 119.583 117.544 118.989 122.197L118.957 122.435L118.914 122.904C118.89 123.223 118.886 123.543 118.902 123.863C118.934 124.512 119.049 125.154 119.243 125.775C119.589 126.873 120.162 127.887 120.923 128.751C122.035 129.965 123.37 130.954 124.857 131.662C127.146 132.736 129.564 133.511 132.051 133.969C136.587 134.83 141.204 135.189 145.819 135.041L146.227 130.083C142.107 129.172 138.041 128.031 134.048 126.664Z" fill="#F0CFA5"/>
<path d="M148.293 317.306C147.698 317.291 147.106 317.211 146.528 317.069C146.499 317.063 146.473 317.048 146.453 317.027C146.433 317.007 146.419 316.98 146.413 316.952C146.408 316.923 146.411 316.894 146.422 316.867C146.434 316.84 146.452 316.817 146.477 316.801C146.688 316.653 148.561 315.376 149.368 315.691C149.459 315.726 149.54 315.785 149.603 315.86C149.666 315.936 149.708 316.027 149.725 316.123C149.77 316.267 149.776 316.42 149.743 316.566C149.709 316.712 149.636 316.847 149.533 316.956C149.178 317.223 148.736 317.348 148.293 317.306V317.306ZM146.937 316.854C148.13 317.092 149.011 317.056 149.322 316.746C149.389 316.672 149.434 316.581 149.453 316.483C149.473 316.385 149.466 316.284 149.433 316.19C149.426 316.141 149.407 316.094 149.376 316.056C149.346 316.017 149.306 315.987 149.26 315.969C148.785 315.787 147.606 316.431 146.937 316.859V316.854Z" fill="#407BFF"/>
<path d="M146.561 317.074C146.537 317.074 146.514 317.069 146.493 317.057C146.47 317.046 146.451 317.029 146.437 317.008C146.423 316.987 146.414 316.963 146.412 316.938C146.406 316.857 146.258 314.954 146.924 314.311C147.009 314.227 147.112 314.164 147.225 314.127C147.338 314.09 147.458 314.08 147.575 314.097C147.706 314.102 147.832 314.149 147.933 314.233C148.033 314.317 148.103 314.432 148.13 314.56C148.283 315.282 147.296 316.661 146.637 317.053C146.614 317.067 146.588 317.074 146.561 317.074V317.074ZM147.467 314.389C147.405 314.388 147.343 314.4 147.285 314.424C147.227 314.447 147.175 314.482 147.131 314.526C146.762 315.168 146.61 315.91 146.695 316.644C147.246 316.176 147.946 315.125 147.839 314.622C147.819 314.533 147.767 314.421 147.54 314.392C147.514 314.391 147.49 314.389 147.467 314.389Z" fill="#407BFF"/>
<path d="M131.968 313.541C130.786 313.361 129.658 312.927 128.66 312.269C128.633 312.253 128.611 312.229 128.598 312.2C128.586 312.17 128.583 312.138 128.59 312.107C128.598 312.076 128.614 312.048 128.639 312.028C128.663 312.007 128.693 311.994 128.724 311.992C129.082 311.965 132.217 311.753 132.814 312.472C132.866 312.531 132.901 312.602 132.918 312.678C132.935 312.754 132.932 312.833 132.91 312.908C132.883 313.031 132.825 313.145 132.744 313.241C132.662 313.337 132.558 313.411 132.441 313.458C132.29 313.516 132.129 313.545 131.968 313.541ZM129.249 312.259C130.689 313.049 131.823 313.396 132.331 313.183C132.405 313.154 132.471 313.106 132.522 313.045C132.574 312.984 132.609 312.911 132.626 312.833C132.636 312.804 132.637 312.773 132.631 312.743C132.624 312.712 132.61 312.685 132.589 312.662C132.257 312.265 130.536 312.204 129.249 312.259V312.259Z" fill="#407BFF"/>
<path d="M128.736 312.289C128.711 312.29 128.687 312.283 128.665 312.272C128.643 312.26 128.624 312.243 128.611 312.222C128.597 312.2 128.589 312.176 128.588 312.15C128.586 312.125 128.591 312.1 128.602 312.077C128.652 311.973 129.844 309.55 131.373 310.274C131.792 310.474 131.836 310.721 131.798 310.893C131.644 311.608 129.652 312.268 128.743 312.289H128.736ZM130.803 310.439C129.976 310.439 129.274 311.491 128.996 311.971C129.95 311.852 131.41 311.256 131.499 310.831C131.52 310.734 131.431 310.636 131.237 310.543C131.102 310.477 130.955 310.441 130.805 310.439H130.803Z" fill="#407BFF"/>
<path d="M145.287 130.006L150.724 128.51L151.469 135.386C151.469 135.386 146.09 136.995 144.773 134.173L145.287 130.006Z" fill="#F0CFA5"/>
<path d="M145.174 130.144C146.312 128.907 146.98 127.31 147.061 125.631L148.459 126.391C148.459 126.391 148.738 129.482 148.191 130.361C147.644 131.24 145.174 130.144 145.174 130.144Z" fill="#F0CFA5"/>
<path d="M153.276 129.19L152.948 135.387H151.469L150.724 128.511L153.276 129.19Z" fill="#F0CFA5"/>
<path d="M156.369 148.397C156.369 148.397 157 199.03 155.922 217.999C154.744 238.771 148.85 307.589 148.85 307.589H136.714C136.714 307.589 137.072 240.449 136.345 219.882C135.551 197.56 133.495 148.397 133.495 148.397H156.369V148.397Z" fill="#2B9B98"/>
<path d="M129.451 90.7864C123.212 91.698 116.784 114.66 116.784 114.66L131.864 120.395C131.864 120.395 135.654 110.525 138.248 102.854C140.968 94.8152 136.144 89.8087 129.451 90.7864Z" fill="#5C639E"/>
<defs>
<linearGradient id="paint0_linear" x1="254.765" y1="226.615" x2="239.808" y2="227.4" gradientUnits="userSpaceOnUse">
<stop stop-color="#93EDC7"/>
<stop offset="1" stop-color="#1CD8D2"/>
</linearGradient>
</defs>
</svg>
