<svg width="208" height="36" viewBox="0 0 208 36" fill="none" xmlns="http://www.w3.org/2000/svg">
<path d="M0 18C0 8.05888 8.05888 0 18 0H190C199.941 0 208 8.05888 208 18C208 27.9411 199.941 36 190 36H18C8.05887 36 0 27.9411 0 18Z" fill="#270D35"/>
<circle cx="18.9" cy="23.78" r="3.06" fill="white"/>
<circle cx="29.78" cy="12.9" r="3.06" fill="white"/>
<circle cx="29.78" cy="23.78" r="3.06" fill="white"/>
<circle cx="18.9" cy="12.9" r="3.06" fill="white"/>
<path d="M55.4746 21.9268H60.1914V23H54.1553V13.0469H55.4746V21.9268ZM61.1553 19.2334C61.1553 18.5088 61.2965 17.8571 61.5791 17.2783C61.8662 16.6995 62.2627 16.2529 62.7686 15.9385C63.279 15.624 63.86 15.4668 64.5117 15.4668C65.5189 15.4668 66.3324 15.8154 66.9521 16.5127C67.5765 17.21 67.8887 18.1374 67.8887 19.2949V19.3838C67.8887 20.1038 67.7497 20.751 67.4717 21.3252C67.1982 21.8949 66.804 22.3392 66.2891 22.6582C65.7786 22.9772 65.1908 23.1367 64.5254 23.1367C63.5228 23.1367 62.7093 22.7881 62.085 22.0908C61.4652 21.3936 61.1553 20.4707 61.1553 19.3223V19.2334ZM62.4268 19.3838C62.4268 20.2041 62.6159 20.8626 62.9941 21.3594C63.377 21.8561 63.8874 22.1045 64.5254 22.1045C65.168 22.1045 65.6784 21.8538 66.0566 21.3525C66.4349 20.8467 66.624 20.1403 66.624 19.2334C66.624 18.4222 66.4303 17.766 66.043 17.2646C65.6602 16.7588 65.1497 16.5059 64.5117 16.5059C63.8874 16.5059 63.3838 16.7542 63.001 17.251C62.6182 17.7477 62.4268 18.4587 62.4268 19.3838ZM69.1738 19.2402C69.1738 18.0872 69.4404 17.1712 69.9736 16.4922C70.5068 15.8086 71.2132 15.4668 72.0928 15.4668C72.9951 15.4668 73.6992 15.7858 74.2051 16.4238L74.2666 15.6035H75.4219V22.8223C75.4219 23.7793 75.137 24.5335 74.5674 25.085C74.0023 25.6364 73.2412 25.9121 72.2842 25.9121C71.751 25.9121 71.2292 25.7982 70.7188 25.5703C70.2083 25.3424 69.8187 25.0303 69.5498 24.6338L70.2061 23.875C70.7484 24.5449 71.4115 24.8799 72.1953 24.8799C72.8105 24.8799 73.2891 24.7067 73.6309 24.3604C73.9772 24.014 74.1504 23.5264 74.1504 22.8975V22.2617C73.6445 22.8451 72.9541 23.1367 72.0791 23.1367C71.2132 23.1367 70.5114 22.7881 69.9736 22.0908C69.4404 21.3936 69.1738 20.4434 69.1738 19.2402ZM70.4453 19.3838C70.4453 20.2178 70.6162 20.874 70.958 21.3525C71.2998 21.8265 71.7783 22.0635 72.3936 22.0635C73.1911 22.0635 73.7767 21.7012 74.1504 20.9766V17.5996C73.763 16.8932 73.182 16.54 72.4072 16.54C71.792 16.54 71.3112 16.7793 70.9648 17.2578C70.6185 17.7363 70.4453 18.445 70.4453 19.3838ZM78.71 23H77.4453V15.6035H78.71V23ZM77.3428 13.6416C77.3428 13.4365 77.4043 13.2633 77.5273 13.1221C77.6549 12.9808 77.8418 12.9102 78.0879 12.9102C78.334 12.9102 78.5208 12.9808 78.6484 13.1221C78.776 13.2633 78.8398 13.4365 78.8398 13.6416C78.8398 13.8467 78.776 14.0176 78.6484 14.1543C78.5208 14.291 78.334 14.3594 78.0879 14.3594C77.8418 14.3594 77.6549 14.291 77.5273 14.1543C77.4043 14.0176 77.3428 13.8467 77.3428 13.6416ZM81.9365 15.6035L81.9775 16.5332C82.5426 15.8223 83.2809 15.4668 84.1924 15.4668C85.7555 15.4668 86.5439 16.3486 86.5576 18.1123V23H85.293V18.1055C85.2884 17.5723 85.1654 17.1781 84.9238 16.9229C84.6868 16.6676 84.3154 16.54 83.8096 16.54C83.3994 16.54 83.0394 16.6494 82.7295 16.8682C82.4196 17.0869 82.1781 17.374 82.0049 17.7295V23H80.7402V15.6035H81.9365ZM98.4863 21.2568L99.9082 15.6035H101.173L99.0195 23H97.9941L96.1963 17.3945L94.4463 23H93.4209L91.2744 15.6035H92.5322L93.9883 21.1406L95.7109 15.6035H96.7295L98.4863 21.2568ZM103.839 23H102.574V15.6035H103.839V23ZM102.472 13.6416C102.472 13.4365 102.533 13.2633 102.656 13.1221C102.784 12.9808 102.971 12.9102 103.217 12.9102C103.463 12.9102 103.65 12.9808 103.777 13.1221C103.905 13.2633 103.969 13.4365 103.969 13.6416C103.969 13.8467 103.905 14.0176 103.777 14.1543C103.65 14.291 103.463 14.3594 103.217 14.3594C102.971 14.3594 102.784 14.291 102.656 14.1543C102.533 14.0176 102.472 13.8467 102.472 13.6416ZM107.585 13.8125V15.6035H108.966V16.5811H107.585V21.168C107.585 21.4642 107.646 21.6875 107.77 21.8379C107.893 21.9837 108.102 22.0566 108.398 22.0566C108.544 22.0566 108.745 22.0293 109 21.9746V23C108.667 23.0911 108.344 23.1367 108.029 23.1367C107.464 23.1367 107.038 22.9658 106.751 22.624C106.464 22.2822 106.32 21.7969 106.32 21.168V16.5811H104.974V15.6035H106.32V13.8125H107.585ZM111.714 16.499C112.274 15.8109 113.004 15.4668 113.901 15.4668C115.465 15.4668 116.253 16.3486 116.267 18.1123V23H115.002V18.1055C114.997 17.5723 114.874 17.1781 114.633 16.9229C114.396 16.6676 114.024 16.54 113.519 16.54C113.108 16.54 112.748 16.6494 112.438 16.8682C112.129 17.0869 111.887 17.374 111.714 17.7295V23H110.449V12.5H111.714V16.499ZM121.831 23V13.0469H125.085C126.165 13.0469 126.976 13.2702 127.519 13.7168C128.065 14.1634 128.339 14.8242 128.339 15.6992C128.339 16.1641 128.207 16.5765 127.942 16.9365C127.678 17.292 127.318 17.5677 126.862 17.7637C127.4 17.9141 127.824 18.2012 128.134 18.625C128.448 19.0443 128.605 19.5456 128.605 20.1289C128.605 21.0221 128.316 21.724 127.737 22.2344C127.159 22.7448 126.34 23 125.283 23H121.831ZM123.144 18.3447V21.9268H125.311C125.921 21.9268 126.402 21.7695 126.753 21.4551C127.108 21.1361 127.286 20.6986 127.286 20.1426C127.286 18.944 126.634 18.3447 125.331 18.3447H123.144ZM123.144 17.292H125.126C125.7 17.292 126.158 17.1484 126.5 16.8613C126.846 16.5742 127.02 16.1846 127.02 15.6924C127.02 15.1455 126.86 14.749 126.541 14.5029C126.222 14.2523 125.737 14.127 125.085 14.127H123.144V17.292ZM131.729 23H130.465V12.5H131.729V23ZM133.425 19.2334C133.425 18.5088 133.566 17.8571 133.849 17.2783C134.136 16.6995 134.532 16.2529 135.038 15.9385C135.549 15.624 136.13 15.4668 136.781 15.4668C137.788 15.4668 138.602 15.8154 139.222 16.5127C139.846 17.21 140.158 18.1374 140.158 19.2949V19.3838C140.158 20.1038 140.019 20.751 139.741 21.3252C139.468 21.8949 139.074 22.3392 138.559 22.6582C138.048 22.9772 137.46 23.1367 136.795 23.1367C135.792 23.1367 134.979 22.7881 134.354 22.0908C133.735 21.3936 133.425 20.4707 133.425 19.3223V19.2334ZM134.696 19.3838C134.696 20.2041 134.885 20.8626 135.264 21.3594C135.646 21.8561 136.157 22.1045 136.795 22.1045C137.438 22.1045 137.948 21.8538 138.326 21.3525C138.704 20.8467 138.894 20.1403 138.894 19.2334C138.894 18.4222 138.7 17.766 138.312 17.2646C137.93 16.7588 137.419 16.5059 136.781 16.5059C136.157 16.5059 135.653 16.7542 135.271 17.251C134.888 17.7477 134.696 18.4587 134.696 19.3838ZM144.711 22.1045C145.162 22.1045 145.556 21.9678 145.894 21.6943C146.231 21.4209 146.418 21.0791 146.454 20.6689H147.65C147.628 21.0928 147.482 21.4961 147.213 21.8789C146.944 22.2617 146.584 22.5671 146.133 22.7949C145.686 23.0228 145.212 23.1367 144.711 23.1367C143.704 23.1367 142.902 22.8018 142.305 22.1318C141.712 21.4574 141.416 20.5368 141.416 19.3701V19.1582C141.416 18.4382 141.548 17.7979 141.812 17.2373C142.077 16.6768 142.455 16.2415 142.947 15.9316C143.444 15.6217 144.03 15.4668 144.704 15.4668C145.534 15.4668 146.222 15.7152 146.769 16.2119C147.32 16.7087 147.614 17.3535 147.65 18.1465H146.454C146.418 17.668 146.235 17.276 145.907 16.9707C145.584 16.6608 145.183 16.5059 144.704 16.5059C144.062 16.5059 143.562 16.7383 143.207 17.2031C142.856 17.6634 142.681 18.3311 142.681 19.2061V19.4453C142.681 20.2975 142.856 20.9538 143.207 21.4141C143.558 21.8743 144.059 22.1045 144.711 22.1045ZM151.137 19.5752L150.344 20.4023V23H149.079V12.5H150.344V18.8506L151.021 18.0371L153.324 15.6035H154.862L151.984 18.6934L155.197 23H153.714L151.137 19.5752ZM160.475 21.0381C160.475 20.6963 160.345 20.432 160.085 20.2451C159.83 20.0537 159.381 19.8896 158.738 19.7529C158.1 19.6162 157.592 19.4521 157.214 19.2607C156.84 19.0693 156.562 18.8415 156.38 18.5771C156.202 18.3128 156.113 17.9984 156.113 17.6338C156.113 17.0277 156.368 16.515 156.879 16.0957C157.394 15.6764 158.05 15.4668 158.848 15.4668C159.686 15.4668 160.365 15.6833 160.885 16.1162C161.409 16.5492 161.671 17.1029 161.671 17.7773H160.399C160.399 17.431 160.251 17.1325 159.955 16.8818C159.663 16.6312 159.294 16.5059 158.848 16.5059C158.387 16.5059 158.027 16.6061 157.768 16.8066C157.508 17.0072 157.378 17.2692 157.378 17.5928C157.378 17.8981 157.499 18.1283 157.74 18.2832C157.982 18.4382 158.417 18.5863 159.046 18.7275C159.679 18.8688 160.192 19.0374 160.584 19.2334C160.976 19.4294 161.265 19.6663 161.452 19.9443C161.644 20.2178 161.739 20.5527 161.739 20.9492C161.739 21.61 161.475 22.141 160.946 22.542C160.418 22.9385 159.732 23.1367 158.889 23.1367C158.296 23.1367 157.772 23.0319 157.316 22.8223C156.861 22.6126 156.503 22.321 156.243 21.9473C155.988 21.569 155.86 21.1611 155.86 20.7236H157.125C157.148 21.1475 157.316 21.4847 157.631 21.7354C157.95 21.9814 158.369 22.1045 158.889 22.1045C159.367 22.1045 159.75 22.0088 160.037 21.8174C160.329 21.6214 160.475 21.3617 160.475 21.0381ZM165.103 13.8125V15.6035H166.483V16.5811H165.103V21.168C165.103 21.4642 165.164 21.6875 165.287 21.8379C165.41 21.9837 165.62 22.0566 165.916 22.0566C166.062 22.0566 166.262 22.0293 166.518 21.9746V23C166.185 23.0911 165.861 23.1367 165.547 23.1367C164.982 23.1367 164.556 22.9658 164.269 22.624C163.981 22.2822 163.838 21.7969 163.838 21.168V16.5811H162.491V15.6035H163.838V13.8125H165.103ZM172.533 23C172.46 22.8542 172.401 22.5944 172.355 22.2207C171.768 22.8314 171.066 23.1367 170.25 23.1367C169.521 23.1367 168.922 22.9316 168.452 22.5215C167.987 22.1068 167.755 21.5827 167.755 20.9492C167.755 20.179 168.047 19.582 168.63 19.1582C169.218 18.7298 170.043 18.5156 171.104 18.5156H172.335V17.9346C172.335 17.4925 172.203 17.1416 171.938 16.8818C171.674 16.6175 171.285 16.4854 170.77 16.4854C170.318 16.4854 169.94 16.5993 169.635 16.8271C169.329 17.055 169.177 17.3307 169.177 17.6543H167.905C167.905 17.2852 168.035 16.9297 168.295 16.5879C168.559 16.2415 168.915 15.9681 169.361 15.7676C169.812 15.5671 170.307 15.4668 170.845 15.4668C171.697 15.4668 172.365 15.681 172.848 16.1094C173.331 16.5332 173.581 17.1188 173.6 17.8662V21.2705C173.6 21.9495 173.686 22.4896 173.859 22.8906V23H172.533ZM170.435 22.0361C170.831 22.0361 171.207 21.9336 171.562 21.7285C171.918 21.5234 172.175 21.2568 172.335 20.9287V19.4111H171.344C169.794 19.4111 169.02 19.8646 169.02 20.7715C169.02 21.168 169.152 21.4779 169.416 21.7012C169.68 21.9245 170.02 22.0361 170.435 22.0361ZM178.549 22.1045C179 22.1045 179.394 21.9678 179.731 21.6943C180.069 21.4209 180.256 21.0791 180.292 20.6689H181.488C181.465 21.0928 181.32 21.4961 181.051 21.8789C180.782 22.2617 180.422 22.5671 179.971 22.7949C179.524 23.0228 179.05 23.1367 178.549 23.1367C177.542 23.1367 176.74 22.8018 176.143 22.1318C175.55 21.4574 175.254 20.5368 175.254 19.3701V19.1582C175.254 18.4382 175.386 17.7979 175.65 17.2373C175.915 16.6768 176.293 16.2415 176.785 15.9316C177.282 15.6217 177.868 15.4668 178.542 15.4668C179.371 15.4668 180.06 15.7152 180.606 16.2119C181.158 16.7087 181.452 17.3535 181.488 18.1465H180.292C180.256 17.668 180.073 17.276 179.745 16.9707C179.422 16.6608 179.021 16.5059 178.542 16.5059C177.899 16.5059 177.4 16.7383 177.045 17.2031C176.694 17.6634 176.519 18.3311 176.519 19.2061V19.4453C176.519 20.2975 176.694 20.9538 177.045 21.4141C177.396 21.8743 177.897 22.1045 178.549 22.1045ZM184.975 19.5752L184.182 20.4023V23H182.917V12.5H184.182V18.8506L184.858 18.0371L187.162 15.6035H188.7L185.822 18.6934L189.035 23H187.552L184.975 19.5752Z" fill="white"/>
</svg>
