<svg width="113" height="23" viewBox="0 0 113 23" fill="none" xmlns="http://www.w3.org/2000/svg">
<path d="M4.5815 8.09571C4.89776 8.34089 5.14857 8.6535 5.32919 9.00475L9.49413 9.22572C10.0583 8.41104 10.9519 7.90721 11.9364 7.95944C11.9656 7.96099 11.9947 7.96302 12.0237 7.96552L14.9587 3.89873C14.6507 3.047 14.7163 2.04225 15.2119 1.2271C15.9946 -0.0600124 17.5532 -0.387017 18.6931 0.496718C19.833 1.38045 20.1227 3.14028 19.34 4.42739C18.7985 5.31788 17.8856 5.74881 16.9969 5.63718L14.2458 9.44908C14.572 10.0108 14.7499 10.6898 14.7198 11.4121C14.6889 12.1555 14.4425 12.8299 14.052 13.3619L15.8931 17.3877C16.2358 17.4554 16.5715 17.6053 16.8771 17.8422C18.017 18.726 18.3066 20.4858 17.5239 21.7729C16.7413 23.06 15.1827 23.387 14.0428 22.5033C12.9028 21.6195 12.6132 19.8597 13.3959 18.5726C13.4272 18.5211 13.4598 18.4711 13.4935 18.4227L11.726 14.5576C11.7047 14.557 11.6834 14.5561 11.662 14.5549C10.3492 14.4853 9.27947 13.4485 8.96751 12.0832L5.30694 11.8889C5.28207 11.9353 5.25588 11.9811 5.22837 12.0264C4.44569 13.3135 2.88711 13.6405 1.74718 12.7568C0.607251 11.873 0.31764 10.1132 1.10032 8.82609C1.88299 7.53898 3.44157 7.21197 4.5815 8.09571Z" fill="white"/>
<path d="M36.7853 12.2832C36.7853 13.2585 36.6167 14.1152 36.2794 14.8535C35.9422 15.5872 35.4591 16.1523 34.8302 16.5488C34.2059 16.9408 33.4858 17.1367 32.67 17.1367C31.8634 17.1367 31.1434 16.9408 30.5099 16.5488C29.881 16.1523 29.3934 15.5895 29.047 14.8604C28.7052 14.1312 28.532 13.2904 28.5275 12.3379V11.7773C28.5275 10.8066 28.6984 9.94987 29.0402 9.20703C29.3865 8.46419 29.8719 7.89681 30.4962 7.50488C31.1251 7.1084 31.8452 6.91016 32.6564 6.91016C33.4676 6.91016 34.1853 7.10612 34.8097 7.49805C35.4386 7.88542 35.924 8.44596 36.2657 9.17969C36.6075 9.90885 36.7807 10.7588 36.7853 11.7295V12.2832ZM35.0558 11.7637C35.0558 10.6608 34.8462 9.81543 34.4269 9.22754C34.0122 8.63965 33.422 8.3457 32.6564 8.3457C31.909 8.3457 31.3234 8.63965 30.8995 9.22754C30.4803 9.81087 30.2661 10.638 30.257 11.709V12.2832C30.257 13.377 30.4689 14.2223 30.8927 14.8193C31.3211 15.4163 31.9135 15.7148 32.67 15.7148C33.4357 15.7148 34.0236 15.4232 34.4337 14.8398C34.8484 14.2565 35.0558 13.4043 35.0558 12.2832V11.7637ZM44.8243 13.377C44.8243 14.5208 44.5646 15.4346 44.045 16.1182C43.5255 16.7972 42.8282 17.1367 41.9532 17.1367C41.142 17.1367 40.4926 16.8701 40.005 16.3369V19.8438H38.3439V9.60352H39.8751L39.9435 10.3555C40.4311 9.76302 41.0942 9.4668 41.9327 9.4668C42.8351 9.4668 43.5415 9.80404 44.0519 10.4785C44.5669 11.1484 44.8243 12.0804 44.8243 13.2744V13.377ZM43.17 13.2334C43.17 12.4951 43.0219 11.9095 42.7257 11.4766C42.434 11.0436 42.0148 10.8271 41.4679 10.8271C40.7889 10.8271 40.3012 11.1074 40.005 11.668V14.9492C40.3058 15.5234 40.798 15.8105 41.4816 15.8105C42.0102 15.8105 42.4226 15.5986 42.7189 15.1748C43.0197 14.7464 43.17 14.0993 43.17 13.2334ZM49.4933 17.1367C48.4406 17.1367 47.5861 16.8063 46.9298 16.1455C46.2781 15.4801 45.9523 14.596 45.9523 13.4932V13.2881C45.9523 12.5498 46.0935 11.8913 46.3761 11.3125C46.6632 10.7292 47.0642 10.2757 47.5792 9.95215C48.0942 9.62858 48.6684 9.4668 49.3019 9.4668C50.309 9.4668 51.0861 9.78809 51.6329 10.4307C52.1844 11.0732 52.4601 11.9824 52.4601 13.1582V13.8281H47.6271C47.6772 14.4388 47.88 14.9219 48.2355 15.2773C48.5955 15.6328 49.0467 15.8105 49.589 15.8105C50.3501 15.8105 50.9698 15.5029 51.4484 14.8877L52.3439 15.7422C52.0476 16.1842 51.6512 16.5283 51.1544 16.7744C50.6622 17.016 50.1085 17.1367 49.4933 17.1367ZM49.295 10.7998C48.8393 10.7998 48.4702 10.9593 48.1876 11.2783C47.9096 11.5973 47.7319 12.0417 47.6544 12.6113H50.8195V12.4883C50.783 11.9323 50.6349 11.513 50.3751 11.2305C50.1154 10.9434 49.7553 10.7998 49.295 10.7998ZM55.297 9.60352L55.3448 10.458C55.8917 9.7972 56.6095 9.4668 57.4982 9.4668C59.0385 9.4668 59.8224 10.3486 59.8497 12.1123V17H58.1886V12.208C58.1886 11.7386 58.0861 11.3923 57.881 11.1689C57.6805 10.9411 57.3501 10.8271 56.8898 10.8271C56.2198 10.8271 55.7208 11.1302 55.3927 11.7363V17H53.7316V9.60352H55.297ZM68.7023 14.833L71.2316 7.04688H73.132L69.5499 17H67.8751L64.3068 7.04688H66.2003L68.7023 14.833ZM78.2042 17C78.1313 16.8587 78.0675 16.6286 78.0128 16.3096C77.4842 16.861 76.837 17.1367 76.0714 17.1367C75.3286 17.1367 74.7225 16.9248 74.2531 16.501C73.7837 16.0771 73.549 15.5531 73.549 14.9287C73.549 14.1403 73.8406 13.5365 74.424 13.1172C75.0118 12.6934 75.8504 12.4814 76.9396 12.4814H77.9581V11.9961C77.9581 11.6133 77.851 11.3079 77.6368 11.0801C77.4226 10.8477 77.0968 10.7314 76.6593 10.7314C76.281 10.7314 75.9712 10.8271 75.7296 11.0186C75.4881 11.2054 75.3673 11.4447 75.3673 11.7363H73.7062C73.7062 11.3307 73.8406 10.9525 74.1095 10.6016C74.3784 10.2461 74.743 9.9681 75.2032 9.76758C75.6681 9.56706 76.1853 9.4668 76.755 9.4668C77.6209 9.4668 78.3113 9.68555 78.8263 10.123C79.3413 10.556 79.6056 11.1667 79.6193 11.9551V15.291C79.6193 15.9564 79.7127 16.4873 79.8995 16.8838V17H78.2042ZM76.379 15.8037C76.7072 15.8037 77.0148 15.724 77.3019 15.5645C77.5935 15.4049 77.8123 15.1908 77.9581 14.9219V13.5273H77.0626C76.4474 13.5273 75.9848 13.6344 75.6749 13.8486C75.365 14.0628 75.2101 14.3659 75.2101 14.7578C75.2101 15.0768 75.3149 15.332 75.5245 15.5234C75.7387 15.7103 76.0236 15.8037 76.379 15.8037ZM85.84 16.2754C85.3523 16.8496 84.6596 17.1367 83.7618 17.1367C82.9598 17.1367 82.3514 16.902 81.9366 16.4326C81.5265 15.9632 81.3214 15.2842 81.3214 14.3955V9.60352H82.9825V14.375C82.9825 15.3138 83.3722 15.7832 84.1515 15.7832C84.9581 15.7832 85.5027 15.4938 85.7853 14.915V9.60352H87.4464V17H85.881L85.84 16.2754ZM90.9054 17H89.2443V6.5H90.9054V17ZM94.8019 7.80566V9.60352H96.1075V10.834H94.8019V14.9629C94.8019 15.2454 94.8566 15.4505 94.9659 15.5781C95.0799 15.7012 95.2804 15.7627 95.5675 15.7627C95.7589 15.7627 95.9526 15.7399 96.1486 15.6943V16.9795C95.7703 17.0843 95.4057 17.1367 95.0548 17.1367C93.7788 17.1367 93.1407 16.4326 93.1407 15.0244V10.834H91.924V9.60352H93.1407V7.80566H94.8019ZM99.1495 17H97.4884V9.60352H99.1495V17ZM97.3859 7.68262C97.3859 7.42741 97.4656 7.21549 97.6251 7.04688C97.7892 6.87826 98.0216 6.79395 98.3224 6.79395C98.6232 6.79395 98.8556 6.87826 99.0197 7.04688C99.1837 7.21549 99.2657 7.42741 99.2657 7.68262C99.2657 7.93327 99.1837 8.1429 99.0197 8.31152C98.8556 8.47559 98.6232 8.55762 98.3224 8.55762C98.0216 8.55762 97.7892 8.47559 97.6251 8.31152C97.4656 8.1429 97.3859 7.93327 97.3859 7.68262ZM102.732 17H101.07V6.5H102.732V17ZM104.235 13.2334C104.235 12.5088 104.379 11.8571 104.666 11.2783C104.953 10.695 105.357 10.2484 105.876 9.93848C106.396 9.62402 106.993 9.4668 107.667 9.4668C108.665 9.4668 109.474 9.78809 110.094 10.4307C110.718 11.0732 111.055 11.9255 111.106 12.9873L111.112 13.377C111.112 14.1061 110.971 14.7578 110.689 15.332C110.411 15.9062 110.01 16.3506 109.485 16.665C108.966 16.9795 108.364 17.1367 107.681 17.1367C106.637 17.1367 105.801 16.7904 105.172 16.0977C104.548 15.4004 104.235 14.473 104.235 13.3154V13.2334ZM105.897 13.377C105.897 14.138 106.054 14.735 106.368 15.168C106.683 15.5964 107.12 15.8105 107.681 15.8105C108.241 15.8105 108.677 15.5918 108.986 15.1543C109.301 14.7168 109.458 14.0765 109.458 13.2334C109.458 12.486 109.296 11.8936 108.973 11.4561C108.654 11.0186 108.219 10.7998 107.667 10.7998C107.125 10.7998 106.694 11.0163 106.375 11.4492C106.056 11.8776 105.897 12.5202 105.897 13.377Z" fill="white"/>
</svg>
