<svg width="197" height="40" viewBox="0 0 197 40" fill="none" xmlns="http://www.w3.org/2000/svg">
<path d="M70.1406 4.85249L59.8388 36.3081H53.5615L43.3033 4.85249H50.4337L56.6892 25.8449L62.9665 4.85249H70.1406Z" fill="white"/>
<path d="M93.194 36.3081H91.7505L89.432 33.0836C88.8633 33.5954 88.2582 34.078 87.6166 34.5314C86.9896 34.9701 86.3261 35.3576 85.6262 35.6939C84.9263 36.0157 84.2045 36.2716 83.4609 36.4617C82.7318 36.6518 81.9881 36.7469 81.2299 36.7469C79.5822 36.7469 78.0293 36.469 76.5711 35.9133C75.1275 35.3576 73.8589 34.5533 72.7653 33.5004C71.6863 32.4328 70.8333 31.1313 70.2063 29.5958C69.5793 28.0604 69.2658 26.3128 69.2658 24.3532C69.2658 22.5253 69.5793 20.8509 70.2063 19.33C70.8333 17.7945 71.6863 16.4784 72.7653 15.3816C73.8589 14.2848 75.1275 13.4366 76.5711 12.837C78.0293 12.2229 79.5822 11.9158 81.2299 11.9158C81.9881 11.9158 82.7391 12.0108 83.4827 12.2009C84.2264 12.391 84.9482 12.6543 85.6481 12.9906C86.348 13.3269 87.0115 13.7218 87.6385 14.1751C88.2801 14.6285 88.8779 15.1184 89.432 15.6448L91.7505 12.859H93.194V36.3081ZM87.1792 24.3532C87.1792 23.5343 87.0188 22.7446 86.698 21.9842C86.3918 21.2091 85.9689 20.5291 85.4294 19.9442C84.8899 19.3446 84.2556 18.8693 83.5265 18.5184C82.812 18.1528 82.0465 17.97 81.2299 17.97C80.4133 17.97 79.6405 18.1089 78.9114 18.3868C78.1969 18.6646 77.5699 19.0741 77.0304 19.6151C76.5055 20.1562 76.0899 20.8289 75.7837 21.6332C75.4775 22.4229 75.3244 23.3296 75.3244 24.3532C75.3244 25.3769 75.4775 26.2909 75.7837 27.0952C76.0899 27.8849 76.5055 28.5502 77.0304 29.0913C77.5699 29.6324 78.1969 30.0419 78.9114 30.3197C79.6405 30.5976 80.4133 30.7365 81.2299 30.7365C82.0465 30.7365 82.812 30.561 83.5265 30.21C84.2556 29.8444 84.8899 29.3692 85.4294 28.7842C85.9689 28.1847 86.3918 27.5047 86.698 26.7442C87.0188 25.9692 87.1792 25.1722 87.1792 24.3532Z" fill="white"/>
<path d="M114.979 33.5662C114.498 34.0049 113.98 34.4217 113.426 34.8165C112.886 35.1967 112.318 35.5331 111.72 35.8256C111.122 36.1034 110.502 36.3228 109.861 36.4836C109.234 36.6591 108.592 36.7469 107.936 36.7469C106.492 36.7469 105.136 36.4909 103.868 35.9791C102.599 35.4673 101.484 34.7434 100.521 33.8075C99.5735 32.8569 98.8225 31.709 98.2684 30.3636C97.7289 29.0036 97.4591 27.4827 97.4591 25.801V12.8151H103.408V25.801C103.408 26.5907 103.525 27.2999 103.758 27.9287C104.006 28.5429 104.334 29.0621 104.743 29.4862C105.151 29.9103 105.625 30.232 106.164 30.4513C106.718 30.6707 107.309 30.7804 107.936 30.7804C108.548 30.7804 109.124 30.6414 109.664 30.3636C110.218 30.0711 110.699 29.6909 111.107 29.2229C111.516 28.755 111.837 28.2285 112.07 27.6436C112.303 27.044 112.42 26.4298 112.42 25.801V12.8151H118.391V36.3081H116.947L114.979 33.5662Z" fill="white"/>
<path d="M128.977 36.3081H122.962V3.47055H128.977V36.3081Z" fill="white"/>
<path d="M145.294 36.3081C143.85 36.3081 142.494 36.0376 141.226 35.4965C139.957 34.9408 138.842 34.1877 137.879 33.2372C136.931 32.272 136.18 31.1533 135.626 29.881C135.087 28.6087 134.817 27.2487 134.817 25.801V18.8255H131.908V12.859H134.817V3.47055H140.766V12.859H149.821V18.8255H140.766V25.801C140.766 26.4298 140.883 27.0221 141.116 27.5778C141.35 28.1188 141.67 28.5941 142.079 29.0036C142.487 29.413 142.968 29.7421 143.522 29.9907C144.076 30.2247 144.667 30.3417 145.294 30.3417H149.821V36.3081H145.294Z" fill="white"/>
<path d="M160.233 6.43185C160.233 6.98756 160.123 7.5067 159.905 7.98928C159.7 8.47186 159.416 8.89595 159.052 9.26155C158.687 9.61252 158.257 9.89768 157.761 10.117C157.28 10.3218 156.762 10.4241 156.208 10.4241C155.654 10.4241 155.129 10.3218 154.633 10.117C154.152 9.89768 153.729 9.61252 153.365 9.26155C153.015 8.89595 152.73 8.47186 152.512 7.98928C152.308 7.5067 152.205 6.98756 152.205 6.43185C152.205 5.89078 152.308 5.37895 152.512 4.89636C152.73 4.39916 153.015 3.97507 153.365 3.6241C153.729 3.2585 154.152 2.97334 154.633 2.76861C155.129 2.54925 155.654 2.43958 156.208 2.43958C156.762 2.43958 157.28 2.54925 157.761 2.76861C158.257 2.97334 158.687 3.2585 159.052 3.6241C159.416 3.97507 159.7 4.39916 159.905 4.89636C160.123 5.37895 160.233 5.89078 160.233 6.43185ZM159.205 36.3081H153.19V12.8151H159.205V36.3081Z" fill="white"/>
<path d="M169.791 36.3081H163.776V3.47055H169.791V36.3081Z" fill="white"/>
<path d="M197 24.3532C197 26.1081 196.686 27.7459 196.059 29.2668C195.432 30.7731 194.579 32.0819 193.5 33.1933C192.421 34.2901 191.153 35.1602 189.695 35.8036C188.251 36.4324 186.698 36.7469 185.036 36.7469C183.388 36.7469 181.835 36.4324 180.377 35.8036C178.933 35.1602 177.665 34.2901 176.571 33.1933C175.492 32.0819 174.639 30.7731 174.012 29.2668C173.385 27.7459 173.072 26.1081 173.072 24.3532C173.072 22.5691 173.385 20.9167 174.012 19.3958C174.639 17.8749 175.492 16.5661 176.571 15.4693C177.665 14.3579 178.933 13.4878 180.377 12.859C181.835 12.2302 183.388 11.9158 185.036 11.9158C186.698 11.9158 188.251 12.2155 189.695 12.8151C191.153 13.4001 192.421 14.2409 193.5 15.3377C194.579 16.4199 195.432 17.7287 196.059 19.2642C196.686 20.785 197 22.4814 197 24.3532ZM190.985 24.3532C190.985 23.3881 190.825 22.518 190.504 21.7429C190.198 20.9532 189.775 20.2805 189.235 19.7248C188.696 19.1545 188.061 18.7231 187.332 18.4306C186.618 18.1235 185.852 17.97 185.036 17.97C184.219 17.97 183.446 18.1235 182.717 18.4306C182.003 18.7231 181.376 19.1545 180.836 19.7248C180.311 20.2805 179.896 20.9532 179.59 21.7429C179.283 22.518 179.13 23.3881 179.13 24.3532C179.13 25.2599 179.283 26.1008 179.59 26.8758C179.896 27.6509 180.311 28.3236 180.836 28.8939C181.376 29.4642 182.003 29.9176 182.717 30.2539C183.446 30.5756 184.219 30.7365 185.036 30.7365C185.852 30.7365 186.618 30.5829 187.332 30.2759C188.061 29.9688 188.696 29.5374 189.235 28.9817C189.775 28.4259 190.198 27.7533 190.504 26.9636C190.825 26.1739 190.985 25.3038 190.985 24.3532Z" fill="white"/>
<path fill-rule="evenodd" clip-rule="evenodd" d="M10.0634 4.87926C10.0634 5.62689 9.8953 6.33524 9.59475 6.96857L13.8746 13.8758C15.6561 13.9862 17.3587 14.9297 18.3704 16.5624C18.4004 16.6109 18.4296 16.6596 18.458 16.7085L27.4821 17.451C28.3541 16.1239 29.8561 15.2477 31.5627 15.2477C34.2574 15.2477 36.442 17.4322 36.442 20.1269C36.442 22.8217 34.2574 25.0062 31.5627 25.0062C29.6984 25.0062 28.0782 23.9606 27.2568 22.4238L18.7983 21.7279C18.3588 22.8008 17.5889 23.7499 16.528 24.4073C15.4362 25.0838 14.2049 25.3468 13.0171 25.2392L9.31981 32.1299C9.60153 32.7467 9.75851 33.4324 9.75851 34.1548C9.75851 36.8495 7.574 39.0341 4.87926 39.0341C2.18452 39.0341 0 36.8495 0 34.1548C0 31.4601 2.18452 29.2755 4.87926 29.2755C4.98715 29.2755 5.09422 29.279 5.20036 29.2859L8.7501 22.6703C8.72748 22.6355 8.70517 22.6003 8.68319 22.5649C7.33425 20.3878 7.62944 17.6563 9.228 15.8213L5.4664 9.75049C5.37301 9.75582 5.27891 9.75851 5.18419 9.75851C2.48945 9.75851 0.30493 7.574 0.30493 4.87926C0.30493 2.18452 2.48945 0 5.18419 0C7.87893 0 10.0634 2.18452 10.0634 4.87926Z" fill="white"/>
</svg>
