<svg width="121" height="25" viewBox="0 0 121 25" fill="none" xmlns="http://www.w3.org/2000/svg">
<path d="M43.9395 2.91987L37.7016 23.8312H33.9005L27.6891 2.91987H32.0066L35.7944 16.8753L39.5955 2.91987H43.9395Z" fill="url(#paint0_linear)"/>
<path d="M57.8987 23.8312H57.0246L55.6207 21.6875C55.2764 22.0278 54.9099 22.3486 54.5215 22.65C54.1418 22.9416 53.7401 23.1993 53.3162 23.4229C52.8924 23.6367 52.4554 23.8069 52.0051 23.9332C51.5636 24.0596 51.1133 24.1228 50.6542 24.1228C49.6565 24.1228 48.7162 23.9381 47.8332 23.5687C46.9591 23.1993 46.191 22.6646 45.5288 21.9646C44.8754 21.2549 44.3589 20.3897 43.9792 19.3689C43.5996 18.3481 43.4097 17.1864 43.4097 15.8837C43.4097 14.6685 43.5996 13.5554 43.9792 12.5443C44.3589 11.5235 44.8754 10.6486 45.5288 9.91947C46.191 9.19034 46.9591 8.62649 47.8332 8.2279C48.7162 7.81959 49.6565 7.61543 50.6542 7.61543C51.1133 7.61543 51.568 7.67862 52.0183 7.805C52.4686 7.93139 52.9057 8.10638 53.3295 8.32997C53.7533 8.55357 54.155 8.81606 54.5347 9.11743C54.9232 9.4188 55.2852 9.74448 55.6207 10.0945L57.0246 8.24248H57.8987V23.8312ZM54.2566 15.8837C54.2566 15.3393 54.1594 14.8143 53.9652 14.3088C53.7798 13.7935 53.5237 13.3415 53.1971 12.9526C52.8704 12.554 52.4863 12.2381 52.0448 12.0048C51.6122 11.7617 51.1486 11.6402 50.6542 11.6402C50.1598 11.6402 49.6918 11.7326 49.2503 11.9173C48.8177 12.102 48.438 12.3742 48.1113 12.7339C47.7935 13.0936 47.5419 13.5408 47.3564 14.0755C47.171 14.6004 47.0783 15.2032 47.0783 15.8837C47.0783 16.5642 47.171 17.1718 47.3564 17.7065C47.5419 18.2315 47.7935 18.6738 48.1113 19.0335C48.438 19.3932 48.8177 19.6654 49.2503 19.8501C49.6918 20.0349 50.1598 20.1272 50.6542 20.1272C51.1486 20.1272 51.6122 20.0105 52.0448 19.7772C52.4863 19.5342 52.8704 19.2182 53.1971 18.8294C53.5237 18.4308 53.7798 17.9787 53.9652 17.4732C54.1594 16.9579 54.2566 16.4281 54.2566 15.8837Z" fill="url(#paint1_linear)"/>
<path d="M71.0897 22.0084C70.7983 22.3 70.4849 22.5771 70.1494 22.8396C69.8227 23.0923 69.4784 23.3159 69.1164 23.5103C68.7543 23.6951 68.3791 23.8409 67.9906 23.9478C67.6109 24.0645 67.2225 24.1228 66.8251 24.1228C65.951 24.1228 65.1299 23.9527 64.3618 23.6124C63.5936 23.2722 62.9182 22.7909 62.3354 22.1688C61.7615 21.5369 61.3068 20.7737 60.9713 19.8793C60.6446 18.9752 60.4813 17.9641 60.4813 16.8461V8.21332H64.0836V16.8461C64.0836 17.3711 64.1543 17.8426 64.2955 18.2607C64.4456 18.669 64.6443 19.0141 64.8915 19.296C65.1387 19.5779 65.4257 19.7918 65.7524 19.9376C66.0879 20.0835 66.4455 20.1564 66.8251 20.1564C67.196 20.1564 67.5447 20.064 67.8714 19.8793C68.2069 19.6849 68.4983 19.4321 68.7455 19.121C68.9927 18.8099 69.187 18.4599 69.3283 18.0711C69.4695 17.6725 69.5402 17.2642 69.5402 16.8461V8.21332H73.1558V23.8312H72.2817L71.0897 22.0084Z" fill="url(#paint2_linear)"/>
<path d="M79.5659 23.8312H75.9238V2.00117H79.5659V23.8312Z" fill="url(#paint3_linear)"/>
<path d="M89.4459 23.8312C88.5718 23.8312 87.7507 23.6513 86.9825 23.2916C86.2144 22.9222 85.5389 22.4215 84.9562 21.7896C84.3823 21.148 83.9276 20.4043 83.5921 19.5585C83.2654 18.7127 83.102 17.8086 83.102 16.8461V12.2089H81.3406V8.24248H83.102V2.00117H86.7044V8.24248H92.1874V12.2089H86.7044V16.8461C86.7044 17.2642 86.775 17.6579 86.9163 18.0273C87.0576 18.387 87.2518 18.703 87.499 18.9752C87.7463 19.2474 88.0376 19.4661 88.3731 19.6314C88.7087 19.787 89.0662 19.8647 89.4459 19.8647H92.1874V23.8312H89.4459Z" fill="url(#paint4_linear)"/>
<path d="M98.4916 3.96981C98.4916 4.33923 98.4253 4.68435 98.2929 5.00517C98.1693 5.32598 97.9971 5.60791 97.7764 5.85095C97.5556 6.08427 97.2952 6.27384 96.995 6.41967C96.7036 6.55577 96.3902 6.62382 96.0547 6.62382C95.7191 6.62382 95.4013 6.55577 95.1011 6.41967C94.8097 6.27384 94.5537 6.08427 94.3329 5.85095C94.121 5.60791 93.9489 5.32598 93.8164 5.00517C93.6928 4.68435 93.631 4.33923 93.631 3.96981C93.631 3.61011 93.6928 3.26985 93.8164 2.94903C93.9489 2.6185 94.121 2.33657 94.3329 2.10325C94.5537 1.86021 94.8097 1.67064 95.1011 1.53453C95.4013 1.38871 95.7191 1.3158 96.0547 1.3158C96.3902 1.3158 96.7036 1.38871 96.995 1.53453C97.2952 1.67064 97.5556 1.86021 97.7764 2.10325C97.9971 2.33657 98.1693 2.6185 98.2929 2.94903C98.4253 3.26985 98.4916 3.61011 98.4916 3.96981ZM97.8691 23.8312H94.227V8.21332H97.8691V23.8312Z" fill="url(#paint5_linear)"/>
<path d="M104.279 23.8312H100.637V2.00117H104.279V23.8312Z" fill="url(#paint6_linear)"/>
<path d="M120.755 15.8837C120.755 17.0503 120.565 18.1391 120.185 19.1502C119.806 20.1515 119.289 21.0216 118.636 21.7604C117.982 22.4896 117.214 23.068 116.331 23.4958C115.457 23.9138 114.517 24.1228 113.51 24.1228C112.513 24.1228 111.572 23.9138 110.689 23.4958C109.815 23.068 109.047 22.4896 108.385 21.7604C107.731 21.0216 107.215 20.1515 106.835 19.1502C106.456 18.1391 106.266 17.0503 106.266 15.8837C106.266 14.6977 106.456 13.5991 106.835 12.5881C107.215 11.577 107.731 10.7069 108.385 9.9778C109.047 9.23895 109.815 8.66051 110.689 8.24248C111.572 7.82445 112.513 7.61543 113.51 7.61543C114.517 7.61543 115.457 7.81473 116.331 8.21332C117.214 8.60218 117.982 9.16118 118.636 9.8903C119.289 10.6097 119.806 11.4798 120.185 12.5006C120.565 13.5116 120.755 14.6393 120.755 15.8837ZM117.113 15.8837C117.113 15.2421 117.016 14.6636 116.821 14.1484C116.636 13.6234 116.38 13.1762 116.053 12.8068C115.726 12.4277 115.342 12.1409 114.901 11.9464C114.468 11.7423 114.005 11.6402 113.51 11.6402C113.016 11.6402 112.548 11.7423 112.106 11.9464C111.674 12.1409 111.294 12.4277 110.967 12.8068C110.65 13.1762 110.398 13.6234 110.213 14.1484C110.027 14.6636 109.934 15.2421 109.934 15.8837C109.934 16.4864 110.027 17.0454 110.213 17.5607C110.398 18.0759 110.65 18.5231 110.967 18.9023C111.294 19.2814 111.674 19.5828 112.106 19.8064C112.548 20.0203 113.016 20.1272 113.51 20.1272C114.005 20.1272 114.468 20.0251 114.901 19.821C115.342 19.6168 115.726 19.33 116.053 18.9606C116.38 18.5912 116.636 18.144 116.821 17.619C117.016 17.0941 117.113 16.5156 117.113 15.8837Z" fill="url(#paint7_linear)"/>
<path d="M4.25892 8.79968C4.60243 9.06618 4.87484 9.40598 5.07102 9.78777L9.59479 10.028C10.2075 9.14243 11.1782 8.59479 12.2475 8.65157C12.2792 8.65325 12.3108 8.65546 12.3423 8.65817L15.5302 4.23775C15.1956 3.31196 15.2668 2.21984 15.8052 1.33381C16.6553 -0.0652308 18.3482 -0.420671 19.5863 0.539911C20.8244 1.50049 21.139 3.41334 20.2889 4.81238C19.7008 5.7803 18.7092 6.24871 17.744 6.12737L14.7558 10.2707C15.1102 10.8813 15.3034 11.6194 15.2707 12.4045C15.2371 13.2125 14.9695 13.9455 14.5454 14.5238L16.545 18.8997C16.9173 18.9733 17.2819 19.1362 17.6138 19.3937C18.8519 20.3543 19.1665 22.2672 18.3164 23.6662C17.4663 25.0652 15.7734 25.4207 14.5353 24.4601C13.2972 23.4995 12.9826 21.5867 13.8327 20.1876C13.8667 20.1316 13.9021 20.0773 13.9388 20.0246L12.019 15.8234C11.9958 15.8228 11.9726 15.8218 11.9494 15.8206C10.5236 15.7449 9.36164 14.6179 9.02281 13.1339L5.04686 12.9228C5.01984 12.9732 4.9914 13.023 4.96151 13.0722C4.11141 14.4712 2.41855 14.8266 1.18041 13.866C-0.0577287 12.9055 -0.37229 10.9926 0.477817 9.59358C1.32792 8.19454 3.02078 7.8391 4.25892 8.79968Z" fill="url(#paint8_linear)"/>
<defs>
<linearGradient id="paint0_linear" x1="74.2219" y1="1.3158" x2="74.2219" y2="24.1228" gradientUnits="userSpaceOnUse">
<stop stop-color="#1CD8D2"/>
<stop offset="1" stop-color="#93EDC7"/>
</linearGradient>
<linearGradient id="paint1_linear" x1="74.2219" y1="1.3158" x2="74.2219" y2="24.1228" gradientUnits="userSpaceOnUse">
<stop stop-color="#1CD8D2"/>
<stop offset="1" stop-color="#93EDC7"/>
</linearGradient>
<linearGradient id="paint2_linear" x1="74.2219" y1="1.3158" x2="74.2219" y2="24.1228" gradientUnits="userSpaceOnUse">
<stop stop-color="#1CD8D2"/>
<stop offset="1" stop-color="#93EDC7"/>
</linearGradient>
<linearGradient id="paint3_linear" x1="74.2219" y1="1.3158" x2="74.2219" y2="24.1228" gradientUnits="userSpaceOnUse">
<stop stop-color="#1CD8D2"/>
<stop offset="1" stop-color="#93EDC7"/>
</linearGradient>
<linearGradient id="paint4_linear" x1="74.2219" y1="1.3158" x2="74.2219" y2="24.1228" gradientUnits="userSpaceOnUse">
<stop stop-color="#1CD8D2"/>
<stop offset="1" stop-color="#93EDC7"/>
</linearGradient>
<linearGradient id="paint5_linear" x1="74.2219" y1="1.3158" x2="74.2219" y2="24.1228" gradientUnits="userSpaceOnUse">
<stop stop-color="#1CD8D2"/>
<stop offset="1" stop-color="#93EDC7"/>
</linearGradient>
<linearGradient id="paint6_linear" x1="74.2219" y1="1.3158" x2="74.2219" y2="24.1228" gradientUnits="userSpaceOnUse">
<stop stop-color="#1CD8D2"/>
<stop offset="1" stop-color="#93EDC7"/>
</linearGradient>
<linearGradient id="paint7_linear" x1="74.2219" y1="1.3158" x2="74.2219" y2="24.1228" gradientUnits="userSpaceOnUse">
<stop stop-color="#1CD8D2"/>
<stop offset="1" stop-color="#93EDC7"/>
</linearGradient>
<linearGradient id="paint8_linear" x1="10.3834" y1="0" x2="10.3834" y2="25" gradientUnits="userSpaceOnUse">
<stop stop-color="#1CD8D2"/>
<stop offset="1" stop-color="#93EDC7"/>
</linearGradient>
</defs>
</svg>
