<svg width="90" height="90" viewBox="0 0 90 90" fill="none" xmlns="http://www.w3.org/2000/svg">
<path d="M24.8536 11.25C24.8536 12.9738 24.4384 14.607 23.6961 16.0673L34.266 31.993C38.6657 32.2477 42.8707 34.4231 45.3692 38.1876C45.4433 38.2993 45.5154 38.4116 45.5855 38.5245L67.872 40.2363C70.0257 37.1765 73.735 35.1562 77.9499 35.1562C84.605 35.1562 90.0001 40.193 90.0001 46.4062C90.0001 52.6195 84.605 57.6562 77.9499 57.6562C73.3455 57.6562 69.3443 55.2454 67.3156 51.702L46.4259 50.0975C45.3406 52.5713 43.4392 54.7596 40.8191 56.2753C38.1226 57.8352 35.0816 58.4416 32.1482 58.1935L23.017 74.0812C23.7127 75.5034 24.1004 77.0844 24.1004 78.75C24.1004 84.9632 18.7053 90 12.0502 90C5.39506 90 0 84.9632 0 78.75C0 72.5368 5.39506 67.5 12.0502 67.5C12.3167 67.5 12.5811 67.5081 12.8433 67.524L21.61 52.2704C21.5542 52.1901 21.4991 52.1091 21.4449 52.0274C18.1134 47.0078 18.8424 40.7098 22.7904 36.4787L13.5004 22.4815C13.2698 22.4938 13.0374 22.5 12.8034 22.5C6.1483 22.5 0.753238 17.4632 0.753238 11.25C0.753238 5.0368 6.1483 0 12.8034 0C19.4586 0 24.8536 5.0368 24.8536 11.25Z" fill="#CACACA"/>
</svg>
