<svg width="16" height="4" viewBox="0 0 16 4" fill="none" xmlns="http://www.w3.org/2000/svg">
<g clip-path="url(#clip0)">
<path d="M2 0C1.60444 0 1.21776 0.117298 0.888861 0.337061C0.559963 0.556824 0.303617 0.869181 0.152242 1.23463C0.000866562 1.60009 -0.0387401 2.00222 0.0384303 2.39018C0.115601 2.77814 0.306082 3.13451 0.585787 3.41421C0.865492 3.69392 1.22186 3.8844 1.60982 3.96157C1.99778 4.03874 2.39992 3.99913 2.76537 3.84776C3.13082 3.69638 3.44318 3.44004 3.66294 3.11114C3.8827 2.78224 4 2.39556 4 2C3.99842 1.47005 3.7872 0.962265 3.41247 0.587535C3.03774 0.212805 2.52995 0.00158273 2 0ZM14 0C13.6044 0 13.2178 0.117298 12.8889 0.337061C12.56 0.556824 12.3036 0.869181 12.1522 1.23463C12.0009 1.60009 11.9613 2.00222 12.0384 2.39018C12.1156 2.77814 12.3061 3.13451 12.5858 3.41421C12.8655 3.69392 13.2219 3.8844 13.6098 3.96157C13.9978 4.03874 14.3999 3.99913 14.7654 3.84776C15.1308 3.69638 15.4432 3.44004 15.6629 3.11114C15.8827 2.78224 16 2.39556 16 2C15.9984 1.47005 15.7872 0.962265 15.4125 0.587535C15.0377 0.212805 14.5299 0.00158273 14 0ZM8 0C7.60444 0 7.21776 0.117298 6.88886 0.337061C6.55996 0.556824 6.30362 0.869181 6.15224 1.23463C6.00087 1.60009 5.96126 2.00222 6.03843 2.39018C6.1156 2.77814 6.30608 3.13451 6.58579 3.41421C6.86549 3.69392 7.22186 3.8844 7.60982 3.96157C7.99778 4.03874 8.39992 3.99913 8.76537 3.84776C9.13082 3.69638 9.44318 3.44004 9.66294 3.11114C9.8827 2.78224 10 2.39556 10 2C9.99842 1.47005 9.7872 0.962265 9.41247 0.587535C9.03774 0.212805 8.52995 0.00158273 8 0Z" fill="#1CD8D2"/>
</g>
<defs>
<clipPath id="clip0">
<rect width="16" height="4" fill="white"/>
</clipPath>
</defs>
</svg>
