<svg width="33" height="41" viewBox="0 0 33 41" fill="none" xmlns="http://www.w3.org/2000/svg">
<path d="M28.875 13.6667H26.8125V9.7619C26.8125 7.17289 25.726 4.68991 23.792 2.8592C21.8581 1.02848 19.235 0 16.5 0C13.765 0 11.1419 1.02848 9.20796 2.8592C7.27399 4.68991 6.1875 7.17289 6.1875 9.7619V13.6667H4.125C3.03199 13.6698 1.98467 14.0821 1.21179 14.8138C0.43891 15.5454 0.00326437 16.5368 0 17.5714V37.0952C0.00326437 38.1299 0.43891 39.1213 1.21179 39.8529C1.98467 40.5845 3.03199 40.9969 4.125 41H28.875C29.968 40.9969 31.0153 40.5845 31.7882 39.8529C32.5611 39.1213 32.9967 38.1299 33 37.0952V17.5714C32.9967 16.5368 32.5611 15.5454 31.7882 14.8138C31.0153 14.0821 29.968 13.6698 28.875 13.6667ZM16.5 31.2381C15.6842 31.2381 14.8866 31.0091 14.2083 30.58C13.5299 30.151 13.0012 29.5411 12.689 28.8276C12.3768 28.1141 12.2951 27.329 12.4543 26.5716C12.6134 25.8141 13.0063 25.1183 13.5832 24.5723C14.1601 24.0262 14.8951 23.6543 15.6953 23.5036C16.4954 23.3529 17.3248 23.4303 18.0786 23.7258C18.8323 24.0213 19.4766 24.5218 19.9298 25.164C20.3831 25.8061 20.625 26.561 20.625 27.3333C20.6217 28.368 20.1861 29.3594 19.4132 30.091C18.6403 30.8226 17.593 31.235 16.5 31.2381ZM22.8938 13.6667H10.1062V9.7619C10.1062 8.15671 10.7799 6.61727 11.9789 5.48223C13.178 4.34718 14.8043 3.70952 16.5 3.70952C18.1957 3.70952 19.822 4.34718 21.0211 5.48223C22.2201 6.61727 22.8938 8.15671 22.8938 9.7619V13.6667Z" fill="#CACACA"/>
</svg>
