<svg width="16" height="16" viewBox="0 0 16 16" fill="none" xmlns="http://www.w3.org/2000/svg">
<g clip-path="url(#clip0)">
<path d="M13.7004 9.76572C13.1349 9.44322 12.4969 9.34722 11.8644 9.32322C11.3384 9.30772 10.5489 8.96122 10.5489 8.00072C10.5489 7.28472 11.1269 6.70672 11.8724 6.67822C12.5049 6.65422 13.1429 6.55822 13.7079 6.23272C14.475 5.78977 15.0349 5.06037 15.2644 4.20484C15.4939 3.3493 15.3743 2.43764 14.9319 1.67022C14.4858 0.902301 13.7532 0.342736 12.8949 0.1143C12.0367 -0.114137 11.1228 0.00721171 10.3539 0.451721C9.84498 0.743684 9.4224 1.1652 9.12916 1.67343C8.83593 2.18166 8.68249 2.75847 8.68444 3.34522C8.68444 3.99322 8.91644 4.58722 9.21044 5.14472C9.45844 5.60822 9.57794 6.47522 8.73644 6.96222C8.10394 7.32422 7.31494 7.09822 6.92444 6.46772C6.59394 5.93372 6.19494 5.43622 5.62994 5.11372C4.03144 4.18922 1.98444 4.73822 1.06794 6.33222C0.62587 7.09991 0.506681 8.01171 0.736571 8.86724C0.966462 9.72276 1.52662 10.452 2.29394 10.8947C2.80192 11.1864 3.37745 11.3398 3.96319 11.3398C4.54894 11.3398 5.12447 11.1864 5.63244 10.8947C6.19494 10.5712 6.59394 10.0742 6.92444 9.54072C7.19494 9.10522 7.87994 8.54822 8.73644 9.04522C9.36994 9.40472 9.56494 10.2047 9.21044 10.8657C8.91894 11.4122 8.68444 12.0142 8.68444 12.6622C8.68444 14.5062 10.1799 15.9982 12.0229 16.0007C12.9082 16.0003 13.7572 15.6485 14.3832 15.0225C15.0092 14.3965 15.361 13.5475 15.3614 12.6622C15.3644 12.0759 15.2123 11.4992 14.9205 10.9906C14.6287 10.482 14.2076 10.0596 13.6999 9.76622L13.7004 9.76572Z" fill="#1CD8D2"/>
</g>
<defs>
<clipPath id="clip0">
<rect width="16" height="16" fill="white"/>
</clipPath>
</defs>
</svg>
